<?xml version="1.0" encoding="utf-8"?>
<!-- Generator: Adobe Illustrator 24.0.0, SVG Export Plug-In . SVG Version: 6.00 Build 0)  -->
<svg version="1.1" id="Layer_1" xmlns="http://www.w3.org/2000/svg" xmlns:xlink="http://www.w3.org/1999/xlink" x="0px" y="0px"
	 viewBox="0 0 18 18" style="enable-background:new 0 0 18 18;" xml:space="preserve">
<style type="text/css">
	.st0{fill:#FFFFFF;}
</style>
<path class="st0" d="M16.8,6.7L16.8,6.7c0.1,0,0.1,0,0.2,0c0.4,0.1,0.6,0.4,0.5,0.8l-1,3.7c-0.1,0.3-0.3,0.5-0.7,0.5H6.4l0.4,1.6
	h8.6c0.4,0,0.7,0.3,0.7,0.7c0,0.3-0.2,0.6-0.6,0.7c0.2,0.3,0.3,0.6,0.3,0.9c0,0.5-0.2,0.9-0.5,1.2h0c-0.3,0.3-0.7,0.5-1.2,0.5
	c-0.5,0-0.9-0.2-1.2-0.5c-0.3-0.3-0.5-0.7-0.5-1.2c0-0.3,0.1-0.6,0.3-0.9h-5c0.2,0.3,0.3,0.6,0.3,0.9c0,0.5-0.2,0.9-0.5,1.2
	c-0.3,0.3-0.7,0.5-1.2,0.5c-0.5,0-0.9-0.2-1.2-0.5l0,0c-0.3-0.3-0.5-0.7-0.5-1.2c0-0.5,0.2-0.9,0.5-1.2c0.2-0.2,0.4-0.3,0.6-0.4
	l-3-11.2H1.2c-0.4,0-0.7-0.3-0.7-0.7c0-0.4,0.3-0.7,0.7-0.7h1.9c0.3,0,0.6,0.2,0.7,0.5L5,6.7H16.8L16.8,6.7z M6.2,14.7L6.2,14.7
	c-0.3,0-0.5,0.1-0.7,0.3l0,0c-0.2,0.2-0.3,0.4-0.3,0.6c0,0.3,0.1,0.5,0.3,0.7l0,0c0.2,0.2,0.4,0.2,0.6,0.2c0.3,0,0.5-0.1,0.6-0.3
	c0.2-0.2,0.3-0.4,0.3-0.7c0-0.2-0.1-0.5-0.3-0.6c-0.2-0.2-0.3-0.2-0.5-0.3L6.2,14.7L6.2,14.7C6.3,14.7,6.2,14.7,6.2,14.7L6.2,14.7
	L6.2,14.7z M14,14.7c-0.2,0-0.4,0.1-0.5,0.3c-0.2,0.2-0.3,0.4-0.3,0.6c0,0.3,0.1,0.5,0.3,0.7c0.2,0.2,0.4,0.3,0.6,0.3
	c0.2,0,0.5-0.1,0.6-0.3c0.2-0.2,0.3-0.4,0.3-0.7c0-0.2-0.1-0.5-0.3-0.6l0,0c-0.1-0.1-0.3-0.2-0.5-0.2H14L14,14.7L14,14.7z M5.4,8
	L6,10.4v0h9.3L16,8H5.4L5.4,8L5.4,8z"/>
<path class="st0" d="M7.8,3.1c-0.2-0.2-0.2-0.4,0-0.6c0.2-0.2,0.4-0.2,0.6,0l1.9,1.9V0.8c0-0.2,0.2-0.4,0.4-0.4
	c0.2,0,0.4,0.2,0.4,0.4v3.6L13,2.5c0.2-0.2,0.4-0.2,0.6,0c0.2,0.2,0.2,0.4,0,0.6L11,5.7c0,0-0.1,0.1-0.3,0.1c-0.2,0-0.3-0.1-0.3-0.1
	L7.8,3.1L7.8,3.1z"/>
</svg>
