<svg width="18" height="18" viewBox="0 0 18 18" fill="none" xmlns="http://www.w3.org/2000/svg">
<path d="M0.698706 6.41938C2.29575 6.41938 3.89279 6.41938 5.45656 6.41938C5.85582 6.41938 6.15527 6.7097 6.15527 7.0968C6.15527 7.48389 5.85582 7.77422 5.45656 7.77422C4.09242 7.77422 2.72828 7.77422 1.36414 7.77422V9.12906C6.45471 9.12906 11.5453 9.12906 16.6026 9.12906V7.74196C15.2384 7.74196 13.8743 7.74196 12.5102 7.74196C12.1442 7.74196 11.8115 7.45164 11.8115 7.06454C11.8115 6.7097 12.1109 6.38712 12.5102 6.38712C14.1072 6.38712 15.7043 6.38712 17.3013 6.38712C17.7006 6.38712 18 6.67744 18 7.06454V7.0968V9.77422C18 10.1613 17.7006 10.4516 17.3013 10.4516H16.4362L15.4381 17.4194C15.3715 17.742 15.0721 18 14.7394 18H3.26063C2.89464 18 2.59519 17.7097 2.56192 17.3871L1.56377 10.4516H0.698706C0.299445 10.4516 0 10.1613 0 9.77422V7.0968C0 6.7097 0.299445 6.41938 0.698706 6.41938ZM4.79113 11.5484V15.3871C4.79113 15.6129 4.99076 15.7742 5.22366 15.7742C5.45656 15.7742 5.65619 15.6129 5.65619 15.3871V11.5484C5.65619 11.3226 5.45656 11.1613 5.22366 11.1613C4.99076 11.1291 4.79113 11.3226 4.79113 11.5484ZM7.31978 11.5484V15.3871C7.31978 15.6129 7.51941 15.7742 7.75231 15.7742C7.98521 15.7742 8.15157 15.6129 8.15157 15.3871V11.5484C8.15157 11.3226 7.95194 11.1613 7.75231 11.1613C7.51941 11.1291 7.31978 11.3226 7.31978 11.5484ZM9.84843 11.5484V15.3871C9.84843 15.6129 10.0481 15.7742 10.281 15.7742C10.5139 15.7742 10.6802 15.6129 10.6802 15.3871V11.5484C10.6802 11.3226 10.4806 11.1613 10.281 11.1613C10.0481 11.1291 9.84843 11.3226 9.84843 11.5484ZM12.3771 11.5484V15.3871C12.3771 15.6129 12.5767 15.7742 12.7763 15.7742C13.0092 15.7742 13.1756 15.6129 13.1756 15.3871V11.5484C13.1756 11.3226 13.0092 11.1613 12.7763 11.1613C12.5767 11.1291 12.3771 11.3226 12.3771 11.5484ZM15.0721 0.22583L9.01664 6.96777L2.92791 0.22583C2.69501 -0.064493 2.22921 -0.096751 1.96303 0.161314C1.66359 0.419378 1.66359 0.838733 1.89649 1.0968L8.48429 8.41938C8.51756 8.45164 8.51756 8.4839 8.55083 8.51615C8.85028 8.74196 9.28281 8.7097 9.51571 8.45164L16.1035 1.0968C16.3697 0.806475 16.3364 0.38712 16.037 0.161314C15.7708 -0.064493 15.305 -0.064493 15.0721 0.22583ZM15.1386 9.90325H2.89464L3.89279 16.6774H14.1738L15.1386 9.90325Z" fill="white"/>
</svg>
