<?xml version="1.0" encoding="utf-8"?>
<!-- Generator: Adobe Illustrator 24.0.0, SVG Export Plug-In . SVG Version: 6.00 Build 0)  -->
<svg version="1.1" id="Layer_1" xmlns="http://www.w3.org/2000/svg" xmlns:xlink="http://www.w3.org/1999/xlink" x="0px" y="0px"
	 viewBox="0 0 774 3" style="enable-background:new 0 0 774 3;" xml:space="preserve">
<style type="text/css">
	.st0{clip-path:url(#SVGID_2_);}
	.st1{fill-rule:evenodd;clip-rule:evenodd;fill:#014F53;}
</style>
<g>
	<g>
		<defs>
			<rect id="SVGID_1_" width="774" height="3"/>
		</defs>
		<clipPath id="SVGID_2_">
			<use xlink:href="#SVGID_1_"  style="overflow:visible;"/>
		</clipPath>
		<g class="st0">
			<path class="st1" d="M1,2.4c-1.2,0-0.7,0.1-1,0.1C1.9,2.6,1,2.4,1,2.4z"/>
			<path class="st1" d="M19.9,2l-0.5,0.1L22.3,2H19.9z"/>
			<path class="st1" d="M37.3,2c-1.7-0.2-6.5,0-9.6,0l-0.5-0.1l-1.4,0.2C29.7,2.2,34.7,2,37.3,2z"/>
			<path class="st1" d="M46.9,2.6c-0.5-0.1,1.9-0.1-2.2,0h0.5C45.5,2.6,46,2.6,46.9,2.6z"/>
			<path class="st1" d="M45,2.6C43.1,2.6,46.2,2.8,45,2.6L45,2.6z"/>
			<path class="st1" d="M53.6,2.6l-2.4,0.1c0.5,0.1,2.6,0.1,1.9,0.1C55.5,2.8,55,2.8,53.6,2.6z"/>
			<path class="st1" d="M56,2.4h-1.2C54.8,2.5,55.3,2.5,56,2.4z"/>
			<path class="st1" d="M51.9,2.5l2.6-0.1c-0.2,0-0.5-0.1-1.2,0C53.6,2.4,53.1,2.5,51.9,2.5z"/>
			<path class="st1" d="M50.5,2.5c-1.4-0.1-3.1-0.1-0.7-0.2C45,2.4,45.7,2.5,50.5,2.5z"/>
			<path class="st1" d="M38.3,1.8l-1.9-0.1l-1.7,0.1C35.7,1.8,38.5,1.9,38.3,1.8z"/>
			<path class="st1" d="M68.9,2.8l-1-0.2L66,2.7C67,2.6,68.7,2.6,68.9,2.8z"/>
			<path class="st1" d="M67.7,2.5l2.9-0.1C68.2,2.4,67.7,2.5,67.7,2.5z"/>
			<path class="st1" d="M56.2,2.2l-4.3,0.1l5.3-0.1H56.2z"/>
			<path class="st1" d="M79.2,2.8l-1.7,0.1l2.9-0.1H79.2z"/>
			<path class="st1" d="M85.9,2.8C84.7,2.9,87.6,3,86.2,3c1.9,0,3.4-0.1,4.8-0.2C89.7,2.9,88.1,2.9,85.9,2.8z"/>
			<path class="st1" d="M93.6,2.6c-0.7,0-1.4,0.1-2.4,0.1C92.1,2.8,92.9,2.8,93.6,2.6z"/>
			<path class="st1" d="M75.2,2.4c0.2,0,0.7,0.1,2.2,0.1l-1.2-0.1C75.9,2.4,75.6,2.4,75.2,2.4z"/>
			<path class="st1" d="M76.1,2.4c1.2,0,1.9,0,2.4,0C78.3,2.5,77.5,2.4,76.1,2.4z"/>
			<path class="st1" d="M63.4,2.3c1.7-0.1,5-0.2,1.7-0.4C63.9,2,65.8,2.2,63.4,2.3z"/>
			<path class="st1" d="M73.5,2.3h-2.9c0,0,0.5,0.1-0.2,0.1L73.5,2.3z"/>
			<path class="st1" d="M74.9,2.2l-1.4,0.1h1.2L74.9,2.2z"/>
			<path class="st1" d="M88.8,2.5c1.2-0.1,2.6-0.1,4.1-0.1c-1.7,0-3.4,0-5,0C87.6,2.4,86.9,2.5,88.8,2.5z"/>
			<path class="st1" d="M87.6,2.4c-1.2,0-1.9,0-2.6,0.1c1,0,1.9,0,2.9,0C88.1,2.4,88.1,2.3,87.6,2.4z"/>
			<path class="st1" d="M97.9,2.6c-0.7,0-1.4-0.1-2.2-0.1C96.5,2.5,97.6,2.6,97.9,2.6z"/>
			<path class="st1" d="M83.3,2.5c0.7,0,1.2-0.1,1.7-0.1c-0.7,0-1.4,0-2.2,0L83.3,2.5z"/>
			<path class="st1" d="M112.5,1.3c-0.2,0.1-3.6,0.2-6.2,0.1c-2.9,0.1-1,0.6,1.4,1c0-0.1,0-0.1,2.9-0.2c-1-0.1-6.2-0.2-3.8-0.4
				c3.8-0.1,3.1,0,5,0.1c-1.4-0.2,4.8-0.2,4.1-0.6l-3.4,0.1C112.2,1.4,113.4,1.4,112.5,1.3z"/>
			<path class="st1" d="M102.4,2.4h-1.2c1.4,0,2.4,0.1,4.1,0.2c1.9-0.1,2.4-0.1,2.4-0.2H102H102.4z"/>
			<path class="st1" d="M96,2.4c1-0.1,3.8-0.2,1.9-0.5c-3.4,0-2.4,0.1-4.5,0.2C99.1,2.2,91.9,2.3,96,2.4c-1.2,0-2.2,0-3.1,0
				C93.8,2.4,94.8,2.5,96,2.4l-0.2,0.1L96,2.4c1.7,0,0.2,0-0.2,0h5.5C100,2.4,98.6,2.4,96,2.4z"/>
			<path class="st1" d="M70.4,1.7c-0.5,0-0.7,0.1-2.2,0.1c-1.2,0,0-0.1,0-0.1c-0.7,0-2.9,0.1-0.2,0.2h0.5c2.2,0.1,5,0.2,4.8,0.2
				C72.5,1.9,71.8,1.8,70.4,1.7z"/>
			<path class="st1" d="M83.3,2l4.5-0.1l-2.4-0.1l0.2,0.1C83,1.8,83.5,1.9,83.3,2z"/>
			<path class="st1" d="M108.4,2.5l-0.5,0.1l2.6-0.2L108.4,2.5z"/>
			<path class="st1" d="M114.4,2.5l-0.2,0.1l1.7-0.1H114.4z"/>
			<path class="st1" d="M443,0.6l-0.2,0.1C443.2,0.6,443.5,0.6,443,0.6z"/>
			<path class="st1" d="M261.8,2.5c1.9,0.1,4.1,0.4,3.8,0.2l-0.7-0.1C263.7,2.5,262.5,2.5,261.8,2.5z"/>
			<path class="st1" d="M362.6,1.4h-0.5c-0.5,0.1-1,0.1-1.4,0.1C361.4,1.6,361.9,1.6,362.6,1.4z"/>
			<path class="st1" d="M364,0.7l2.6,0.1C365.9,0.8,365.2,0.8,364,0.7z"/>
			<path class="st1" d="M506.4,0.4l1.7-0.1C505.5,0.2,506.7,0.4,506.4,0.4z"/>
			<path class="st1" d="M175.9,2.4c1.7,0.1,3.1,0.1,4.3,0.1C178.1,2.4,176.4,2.3,175.9,2.4z"/>
			<path class="st1" d="M449,2.4c0.7,0,1.2-0.1,1.2-0.1C449.2,2.3,448.7,2.3,449,2.4z"/>
			<path class="st1" d="M185,2.5c-0.2,0-0.5,0-1,0c-1.2,0-2.4,0-4.1,0C181.7,2.6,183.3,2.6,185,2.5z"/>
			<path class="st1" d="M138.6,2.5C137.4,2.5,138.3,2.6,138.6,2.5L138.6,2.5z"/>
			<path class="st1" d="M132.4,1.9c0.2,0,0.5,0,0.5-0.1L132.4,1.9z"/>
			<path class="st1" d="M136.9,2.5c-0.5,0-0.7,0-1.2,0C135.7,2.5,135.9,2.6,136.9,2.5z"/>
			<path class="st1" d="M299.4,0.6c-1.9,0.2-3.1,0.2-4.5,0.1l1.4,0.5L299.4,0.6z"/>
			<path class="st1" d="M476.3,0.5l-3.1-0.1c3.8-0.2,6.7-0.1,3.6-0.4c-0.5,0.5-12.4,0-12.9,0.6l-2.2-0.1c0.7,0,0.7,0,1.2,0
				c-4.1-0.2-3.1,0.4-8.4,0.4c-1.9,0-3.1-0.1-1.9-0.1l-4.1,0.1c-1.2,0-1-0.1,0.2-0.1h-6.2c-1,0.1-2.9,0.2-3.8,0.2
				c-1.7-0.1,0.7,0,0.5-0.1L435.6,1c-1.4-0.1,1.4-0.2,3.8-0.2c-3.4-0.5-2.9,0.1-9.8-0.1l3.4-0.1c-2.2-0.4-4.8-0.2-8.4-0.4
				c1,0.1,7.4,0.5,3.6,0.6c-1,0-2.4-0.1-4.5,0c0-0.2-1.9-0.1-4.5-0.1l0.2-0.2c-2.6,0.1-2.4,0.2-4.1,0.4c-3.1,0-3.6-0.2-4.3-0.4
				c-4.8,0,3.4,0.4-2.4,0.4c-4.1-0.1-6.7,0-11.5,0.1c-2.9-0.1,0.5-0.1-0.5-0.2L394.2,1c-0.7,0-0.5-0.1-0.2-0.1
				c-2.2,0.1-0.2,0.2-3.4,0.4c-1,0.2-6.7-0.4-10.8-0.1c-1-0.1,0.5-0.1,0.2-0.2c-5.5,0.2-4.8,0.1-9.3,0.5l-3.8-0.1
				c2.9,0.2-0.7,0.4-4.1,0.6c1,0.1,1.9,0.1,2.4,0.2l-5,0.1c-0.7,0,0-0.1,0.7-0.2c-0.2,0-0.7,0-1,0.1c-1.9-0.1-1-0.2,0.5-0.4
				c0.7,0,1.2,0.1,1.9,0.1c1.2-0.1,2.4-0.4,2.2-0.5c-0.2,0-1,0-1.7,0.1c0.2,0,0.5-0.1,0.5-0.1c-0.2,0-0.7,0-1.4,0.1l-1.2-0.2
				l-0.2,0.1l-6.7-0.1c-4.8,0.2-8.9,0.7-16.5,0.8c1.9-0.2,0.5-0.4,0.5-0.6c2.2,0.2,6-0.1,9.8,0c-2.2,0-1.7-0.1-1.2-0.2l-6.9,0.2
				c0.2-0.2-1.4-0.1-3.4-0.2c1.4,0.4-5.3,0.2-8.1,0.4c-0.2-0.1,0.5-0.2,4.1-0.2c-3.8-0.2-5,0.5-8.9,0.2c1,0,1.2,0,1.7,0
				c-1.9,0.1-6.9,0-5.7-0.1h1c-5.7,0-17.2,0-18,0.4c0,0,0.7-0.4,1.2-0.5l-10.1,1.1c1-0.2-2.6-1,2.2-1.1c-1.4,0-3.1-0.1-5.7,0
				c1,0,2.4,0.4,1,0.5c-3.4-0.4-2.4-0.1-6.7-0.5c1.4,0.1-0.2,0.5-2.4,0.5c0.2-0.1-0.2-0.5,0.7-0.5h-6c1.4-0.1,0.2-0.4-1-0.5
				c0.5,0.1-4.8,0-6.2,0l2.4,0.1c-6.2-0.1-6,0.6-12.2,0.6c0.7-0.1,1.9-0.6-1.2-0.6c-1.4,0.2-6.2,1.1-11.7,1.2l-1-0.1L241.2,2
				c2.6-0.4,9.8-1.1,13.6-1.3c-2.4-0.1-0.7-0.1-4.1-0.1c-1.2-0.1,1.9-0.2,2.9-0.2l-7.9-0.1c0.2,0.2-6,0.2-5.7,0.5l8.6-0.2
				c0.2,0.2-5,0.7-10.5,0.7c-1.4-0.1,1-0.5,1-0.6c-0.7,0.1-5.3,0.1-6,0.1l2.4-0.1c-3.1-0.1-5,0.4-8.9,0.1c-1.2,0-3.8-0.4-4.1-0.2
				c2.2,0.4,2.6,1.2,1.2,1.4c-0.5,0-6.9-0.2-8.4-0.5c-2.2-0.2,3.1-0.6,1.4-0.7c0,0.1-1.2,0.1-1.7,0.2c-1.4-0.1,0.5-0.2-2.4-0.2
				c-0.5,0.2-6,0-1.4,0.2c-2.9,0.1-3.1,0-6.5,0c1.2,0.1-3.1,0.6-6,0.7c0.2-0.1-0.5-0.1-0.7-0.2c-6,0-9.1-0.1-14.8-0.1
				c-0.5-0.1-3.1-0.1-2.2-0.2c-0.7,0-1.4,0.1-3.3,0.1c-3.4-0.2,3.8,0,1.2-0.4c-0.2,0.1-4.5,0.2-6.9,0.4c0.7,0.2,5.7,0,8.1,0
				c0,0.4-4.3,0.7-10.1,0.8c-4.5,0.1-1.9-0.2-2.9-0.1c-8.6,0-7.4,0.6-14.6,0.4c-2.9-0.2-0.2-0.4-0.7-0.6c3.8-0.1,5.7,0.1,8.4,0.1
				l-3.1-0.1c1.2-0.1,3.8-0.1,5,0c-2.4-0.2-14.6,0-21.3-0.2c-1.2,0.1-3.4,0.1-2.2,0.2h2.2c1.9,0.1-4.1,0.2-1.2,0.4
				c-2.9,0.1-6,0.4-10.1,0.2L129,2c0,0.1,2.6,0.1,3.8,0.1c-1.7,0.1-6.2-0.4-7.9,0l2.9,0.1c-2.9,0.1-6.5,0.4-9.8,0.4
				c1.7,0.2,0.7,0,3.4,0.2c-2.2-0.4,9.1,0,5.5-0.4c2.6,0.4,4.5,0.1,7.9,0.4c0-0.1-1.2-0.1,1.7-0.1l0.7-0.1h0.2h-0.2
				c-0.7,0-1.2-0.1-1.4-0.1c1.4-0.2,6.2-0.1,7.9-0.2c1.7,0-0.7,0.1,0.2,0.1l2.4-0.1c0.2,0.1,4.8,0.2,0.5,0.4h3.8
				c2.2,0.1,5.3,0.1,7.2,0.1c1.7,0,4.5-0.2,2.9,0l5-0.4c5.7,0,12-0.2,18.7,0c1.9,0,4.1-0.1,7.2,0l0.7,0.1c2.4,0,7.4,0.1,8.6,0
				c2.6,0.4,12.2,0.1,16.5,0.1l0.2-0.2c3.1,0,6,0,9.8-0.1l-0.2-0.1c2.9,0,8.1,0.2,13.2,0.2c-0.2,0.1-1.7,0-2.6,0
				c6.2,0.4,12.9-0.2,18.4,0c1.4,0,2.4,0,3.4,0h-0.2h0.5c0.7,0,1.2,0.1,1.9,0.1c-0.5,0-1.2-0.1-1.7-0.1c1,0,2.6,0,4.3-0.1l0.7,0.2
				h0.5c1.7,0.1,1.2-0.1,0.5-0.2c0.7,0,1.4-0.1,2.2-0.1c1.2,0.4,4.1-0.1,6,0.2c1-0.1,7.9-0.1,8.9-0.5c0,0,0.5,0.1-0.2,0.1
				c1.7,0,3.6,0.1,5,0l0.7,0.2l3.8-0.4c2.4,0.1,3.4,0.2,1,0.4c5.7-0.2,4.5-0.1,9.3-0.4L302.3,2c1.7,0,4.5-0.2,5.5-0.1
				c3.8,0.2,18.9,0,28.7,0.4c-1.9-0.5,4.5,0.2,5-0.1c0.5,0.1,1.9,0.1,0.2,0.2c5-0.1,7.7,0.1,11-0.1c0.5,0.1-1,0.1-0.5,0.2
				c0.5,0,1.7-0.1,2.2,0s-0.7,0.1-1.4,0.1c5,0,5.7-0.4,6-0.6c2.6,0.1,3.8,0.1,5.7-0.1c1,0.1,2.4,0.2-0.7,0.2c1.7,0,11,0.1,11-0.1
				c0.5,0.1,2.4,0,2.9,0c4.1,0,4.3,0,8.4,0h-1.2c1.7-0.4,3.4-0.1,6.5-0.1c7.2,0.2,3.1-0.1,10.3,0.1l-0.5-0.2
				c0.7-0.4,6.5,0.2,10.5,0.1l-1.4-0.1c2.4-0.1,6.5,0.6,8.6,0.6c0.5,0-0.7,0-1.4,0.1c6,0.2,0.7-0.2,5.3-0.4c0.7,0.1-1,0.4,1.9,0.4
				c1.4,0.1,8.6-0.5,12.9-0.1c-1-0.1-1.9-0.2,0.2-0.2c3.1,0,8.6,0.4,11.5,0.1c0.5,0,0.5,0,0.5,0.1c2.4-0.1,7.9-0.1,9.3-0.4
				c2.2,0.6,15.1-0.4,15.1,0.2h7.4h-0.2c4.8,0,6.5-0.1,8.1-0.2c1.2,0,0.2,0.1,0.2,0.1c6.9,0.1,7.7,0.1,13.6-0.2l0.7,0.2
				c1.7-0.1,10.1,0.4,17,0.1c0,0-0.2,0.1-0.7,0.1c7.7-0.2,18.4,0.5,21.3-0.1l5-0.1c-6.7,0,1-0.4-1.7-0.5c2.6,0,6.7,0.2,3.6,0.2h-0.5
				c-1.2,0.4,8.1,0.1,7.9,0.4c12.9,0,25.6,0.2,37.8,0.2l-1.4-0.2h4.3c1.2,0.1,1.4,0.2-1.4,0.2c1.4-0.1,5-0.4,5-0.5
				c6,0.1-2.2,0.4-0.5,0.4h2.4h-0.5c1.9-0.1,2.2-0.2,5.7-0.2c2.4,0,1.2,0.1,2.2,0.2c0,0,0.2,0,1.4,0h5.3l-2.2-0.2
				c2.4-0.1,5,0,2.6-0.2c3.6,0.4,19.9,0.1,22,0.2C642.4,2,645.7,2,649.5,2c-1,0-1.7-0.2,1.9-0.2c-1.2,0.5,6.5,0.2,9.3,0.6
				c-2.6-0.2,10.1-0.1,6-0.4c2.9,0,0.2,0.2,2.4,0.4c6.9-0.2,15.3,0.1,23.9,0.1c0.2-0.1-1.2-0.1,0.5-0.2l4.5,0.1
				c1.7,0,1.7-0.4,4.5-0.1c-0.5,0-1.2-0.1,0-0.1c17,0.2,34.5-0.4,51.5,0.2c-2.4-0.1-0.7-0.1,1-0.1c-1.2,0,0-0.1-0.2-0.2l7.2,0.2
				c1.2-0.2,7.7,0,8.4-0.2h-2.2c3.1-0.2-4.1-0.6-3.8-1.1c-3.4,0.4-8.9-0.5-14.4,0c-1.2-0.1,1-0.1,0.5-0.2c-1.4,0.1-3.1,0.2-6.2,0.1
				h0.2c-8.9,0-12.7-0.1-22.5-0.2l0.7,0.2c-2.2,0-2.6-0.1-3.6-0.1c-2.4,0.2,6,0,3.8,0.4c-2.9-0.4-15.1,0-17-0.5
				c-3.4,0,1,0.2-2.4,0.2l-1-0.1L702,0.9c-2.2,0-3.1-0.1-3.4-0.2c0.5,0,1.4,0,2.2,0c-2.9-0.1-7.9,0-8.9,0l3.1,0.1
				c-8.9,0.1-19.9,0-28.5,0.2l0.7,0.1c-6.7,0.1-5.3-0.1-12.4,0h0.2c-1.4,0.1-3.4,0.1-5.3,0.1c1.9-0.1-3.4-0.2-1-0.4
				c-7.2,0.1-3.6,0.1-8.1,0.5l-1.2-0.1c-1.9-0.1-1.9,0-5.5,0c2.9-0.1-2.4-0.2,1-0.4c-7.7-0.4-11.2,0.4-14.8-0.1
				c-3.6,0.4,6.5,0.2,4.5,0.4c1.7,0.1-2.9,0.4-5.3,0.2c-2.4,0-4.1-0.5-10.3-0.5c0.7,0,0.7,0,1.2,0c-2.4-0.1-4.5,0.1-7.2,0
				c-1.7,0.2-3.6,0-4.1,0.2l5.5-0.1c-3.1,0.1-6.2,0.5-11.2,0.2c0.5-0.1,1.9-0.1,3.1-0.2c-1.4-0.1-2.9,0-4.5,0
				c0.5-0.4,6.7-0.1,10.3-0.4c-1.7-0.1-6.5,0.2-4.8-0.1c-2.4,0.5-6,0-10.1,0.2l0.2-0.2c-0.7,0-1.9,0.1-3.1,0.1l2.2-0.2
				c-3.3,0.2-6.5-0.1-9.6-0.1c6.7,0,1.4,0.2,4.3,0.4c-8.4,0.2-4.8-0.5-14.1-0.4c1.2,0,4.8,0.1,2.6,0.2c-1.7,0-4.1-0.1-5.3-0.2
				c-6.2,0,1,0.2-1.7,0.4c-2.2-0.2-3.1,0.1-5.7,0.1V0.5c-6.9-0.1-1.9,0.4-8.1,0.2l2.6-0.2l-3.4,0.1l0.7-0.2c-3.6,0.1-4.8,0.1-8.1,0
				c0.7,0.1-0.5,0.4-3.6,0.4c-2.2-0.1,1.2-0.2-3.1-0.1c1-0.1,2.2-0.2,4.1-0.1l1.2-0.1c-2.4-0.1-5.7,0-7.4,0c0.7,0,1.4,0,1.7,0
				l-6.5,0.2c-1-0.1-0.2-0.1,0.5-0.2c-1.2,0-2.2,0.1-4.1,0.1c0.5-0.1,0.5-0.4,3.1-0.4l-6,0.1c-0.5-0.1-3.1-0.2-2.4-0.2
				c-3.4-0.1-8.1,0.4-12.7,0.1c-0.2,0-0.7,0.1-1.7,0.1c-4.3,0-7.9-0.2-12.9,0L488.5,0c-3.8,0.1,3.8,0.4-2.6,0.5
				c-4.5,0.1-1.7-0.2-3.4-0.4c-2.2,0.1-6.2,0.4-10.5,0.2C473.9,0.5,475.1,0.6,476.3,0.5z M428.4,0.6c1,0,2.9-0.1,3.4,0
				C430.8,0.8,430.1,0.7,428.4,0.6z M355.6,1.1c0.7-0.1,1.7,0,2.9,0C357.6,1.2,356.6,1.2,355.6,1.1z M152.5,2.4
				C154.6,2.5,153.9,2.4,152.5,2.4L152.5,2.4z M148.1,2.3C147.9,2.4,147.9,2.4,148.1,2.3c0,0,1,0,2.2,0
				C150.1,2.3,149.6,2.3,148.1,2.3z M610.3,2.3h-0.7C611.3,2.2,610.8,2.2,610.3,2.3z"/>
			<path class="st1" d="M363.8,0.8l0.5,0.1C364.5,1,364.5,0.8,363.8,0.8z"/>
			<path class="st1" d="M506.2,0.5h0.2V0.4L506.2,0.5z"/>
			<path class="st1" d="M214.9,0.7c1,0,1.4,0.1,1.7,0.1C216.6,0.8,216.4,0.7,214.9,0.7z"/>
			<path class="st1" d="M125.4,2.6h2.9c-1.4,0-1.9,0-2.4-0.1C125.9,2.6,126.4,2.6,125.4,2.6z"/>
			<path class="st1" d="M101.5,1.4c-0.5,0-1,0-1.2,0v0.1C102.2,1.6,103.4,1.6,101.5,1.4z"/>
			<path class="st1" d="M123,2c-0.2-0.1-1.9-0.1-3.8-0.1h0.2C118.7,2.2,120.9,2.2,123,2z"/>
			<path class="st1" d="M118.5,1.9c-0.5,0-1.2,0-1.7,0C116.6,2,117.5,1.9,118.5,1.9z"/>
			<path class="st1" d="M142.9,2.4c-1,0-0.5,0.2-1.2,0.1C140.7,2.8,147.9,2.3,142.9,2.4z"/>
			<path class="st1" d="M121.3,1.6l0.7,0.1l1-0.1H121.3z"/>
			<path class="st1" d="M136.7,1.7h-3.1c0,0-0.2,0-0.7,0.1C134.5,1.7,136.7,1.7,136.7,1.7z"/>
			<path class="st1" d="M125.6,1.4h0.7l2.4,0.1L125.6,1.4z"/>
			<path class="st1" d="M169.7,1.7h3.4c0.2-0.1-0.5-0.1-1.9-0.1C170.4,1.6,169.2,1.7,169.7,1.7z"/>
			<path class="st1" d="M159.6,1.2c1,0,1,0.1,1.4,0.1V1.1L159.6,1.2z"/>
			<path class="st1" d="M169.4,1.1c0.2-0.1,4.8-0.2,0.7-0.1C169.7,1,166.3,1.1,169.4,1.1z"/>
			<path class="st1" d="M220.2,1.4h-1l0.2,0.4L220.2,1.4z"/>
			<path class="st1" d="M264.9,0.5c-4.1-0.1-1,0.2-4.5,0.1c-1,0.1,2.9,0.1,1.9,0.1C264.7,0.6,265.9,0.7,264.9,0.5z"/>
			<path class="st1" d="M262.3,0.7c-0.5,0-0.7,0-1.2,0C261.8,0.8,262.1,0.7,262.3,0.7z"/>
			<path class="st1" d="M766.8,2.4l2.6,0.1l-1.7-0.1H766.8z"/>
			<path class="st1" d="M771.8,2.2l0.7,0.2l1.4-0.2C773.5,2.2,772.3,2.3,771.8,2.2z"/>
			<path class="st1" d="M421.2,0.1c0.2,0.1,0.7,0.1,1.9,0.1L421.2,0.1z"/>
			<path class="st1" d="M456.2,0.4h-0.7l1.2,0.2L456.2,0.4z"/>
			<path class="st1" d="M485.4,0c-1.2,0-2.6,0-3.8,0C484.2,0,485.6,0.4,485.4,0z"/>
			<path class="st1" d="M773,0.6c1.2,0,0.7-0.1,1-0.1C772.1,0.4,773,0.6,773,0.6z"/>
			<path class="st1" d="M754.1,1l0.5-0.1l-2.9,0.2L754.1,1z"/>
			<path class="st1" d="M736.7,1c1.7,0.2,6.5,0,9.6,0l0.5,0.1l1.4-0.2C744.3,0.8,739.3,1,736.7,1z"/>
			<path class="st1" d="M727.1,0.4c0.5,0.1-2.2,0.1,2.2,0h-0.5C728.5,0.4,728,0.4,727.1,0.4z"/>
			<path class="st1" d="M729,0.4C730.9,0.4,727.8,0.2,729,0.4L729,0.4z"/>
			<path class="st1" d="M720.4,0.4l2.4-0.1c-0.5-0.1-2.6-0.1-1.9-0.1C718.5,0.2,719,0.2,720.4,0.4z"/>
			<path class="st1" d="M718,0.6h1.2C719.2,0.5,718.7,0.5,718,0.6z"/>
			<path class="st1" d="M722.1,0.5l-2.6,0.1c0.2,0,0.5,0.1,1.2,0C720.4,0.6,720.9,0.5,722.1,0.5z"/>
			<path class="st1" d="M723.5,0.5c1.4,0,3.1,0.1,0.7,0.2C729,0.6,728.3,0.5,723.5,0.5z"/>
			<path class="st1" d="M735.7,1.2l1.9,0.1l1.4-0.1C738.3,1.2,735.5,1.1,735.7,1.2z"/>
			<path class="st1" d="M705.1,0.2l1,0.2l1.9-0.1C707,0.4,705.3,0.4,705.1,0.2z"/>
			<path class="st1" d="M706.3,0.5l-2.6,0.1C705.8,0.6,706.3,0.6,706.3,0.5z"/>
			<path class="st1" d="M717.8,1l4.3-0.2L716.8,1H717.8z"/>
			<path class="st1" d="M694.8,0.2l1.7-0.1l-2.9,0.2L694.8,0.2z"/>
			<path class="st1" d="M688.1,0.2c1.2-0.1-1.4-0.2-0.2-0.2c-1.9,0-3.4,0.1-4.8,0.2C684.3,0.1,685.9,0.1,688.1,0.2z"/>
			<path class="st1" d="M680.4,0.4c0.7,0,1.4-0.1,2.4-0.1C681.9,0.2,681.1,0.2,680.4,0.4z"/>
			<path class="st1" d="M698.8,0.6c-0.2,0-0.7-0.1-2.2-0.1l1,0.1C698.1,0.6,698.4,0.6,698.8,0.6z"/>
			<path class="st1" d="M697.9,0.6c-1.2,0-1.9,0-2.4,0C695.7,0.5,696.5,0.6,697.9,0.6z"/>
			<path class="st1" d="M710.6,0.7c-1.7,0.1-4.8,0.2-1.7,0.4C710.1,1,708.2,0.8,710.6,0.7z"/>
			<path class="st1" d="M700.5,0.7h2.9c0,0-0.5-0.1,0.2-0.1L700.5,0.7z"/>
			<path class="st1" d="M699.1,0.8l1.4-0.1h-1.2L699.1,0.8z"/>
			<path class="st1" d="M685.2,0.5c-1.2,0.1-2.6,0.1-4.1,0.1c1.7,0,3.4,0,5,0C686.4,0.6,687.1,0.5,685.2,0.5z"/>
			<path class="st1" d="M686.4,0.6c1.2,0,1.9,0,2.6,0c-1,0-1.9,0-2.9,0C685.9,0.6,685.9,0.7,686.4,0.6z"/>
			<path class="st1" d="M676.1,0.4c0.7,0,1.4,0.1,2.2,0.1C677.5,0.5,676.4,0.4,676.1,0.4z"/>
			<path class="st1" d="M690.7,0.5c-0.7,0-1.2,0.1-1.7,0.1c0.7,0,1.4,0,2.2,0L690.7,0.5z"/>
			<path class="st1" d="M661.5,1.7c0.2-0.1,3.4-0.2,6.2-0.1c2.9-0.1,1-0.7-1.4-1c0,0.1,0,0.1-2.9,0.2c1,0.1,6.2,0.2,3.8,0.4
				c-3.8,0.1-3.1,0-5-0.1c1.4,0.2-4.8,0.2-4.1,0.6l3.4-0.1C661.8,1.6,660.6,1.6,661.5,1.7z"/>
			<path class="st1" d="M671.6,0.6h1.2c-1.4,0-2.4-0.1-4.1-0.2c-1.9,0.1-2.4,0.1-2.4,0.2h5.7H671.6z"/>
			<path class="st1" d="M678,0.6c-1,0.1-3.6,0.2-1.9,0.4c3.4,0,2.4-0.1,4.5-0.2C674.9,0.8,682.1,0.7,678,0.6c1.2,0,2.2,0,3.1,0
				C680.2,0.6,679.2,0.5,678,0.6l0.2-0.1L678,0.6c-1.7,0-0.2,0,0.2-0.1l-5.5,0.1C674,0.6,675.4,0.6,678,0.6z"/>
			<path class="st1" d="M703.6,1.3c0.5,0,0.7-0.1,2.2-0.1c1.2,0,0,0.1,0,0.1c0.7,0,2.9-0.1,0.2-0.2h-0.5c-2.2,0-5-0.2-4.8-0.2
				C701.5,1.1,702.2,1.2,703.6,1.3z"/>
			<path class="st1" d="M690.7,1l-4.5,0.1l2.4,0.1V1.1C691,1.2,690.5,1.1,690.7,1z"/>
			<path class="st1" d="M665.6,0.5l0.5-0.1l-2.6,0.2L665.6,0.5z"/>
			<path class="st1" d="M659.6,0.5l0.2-0.1l-1.7,0.1H659.6z"/>
			<path class="st1" d="M512.2,0.5c-1.9-0.1-4.1-0.4-3.8-0.2l0.7,0.1C510.3,0.5,511.5,0.5,512.2,0.5z"/>
			<path class="st1" d="M411.4,1.6h0.5c0.5,0,1-0.1,1.4-0.1C412.8,1.4,412.1,1.6,411.4,1.6z"/>
			<path class="st1" d="M410,2.3l-2.6-0.1C408.1,2.2,408.8,2.2,410,2.3z"/>
			<path class="st1" d="M267.6,2.6l-1.7,0.1C268.5,2.8,267.3,2.6,267.6,2.6z"/>
			<path class="st1" d="M598.1,0.6c-1.7-0.1-3.1-0.1-4.3-0.1C595.9,0.6,597.6,0.7,598.1,0.6z"/>
			<path class="st1" d="M325,0.6c-0.7,0-1.2,0.1-1.2,0.1C324.8,0.7,325.3,0.7,325,0.6z"/>
			<path class="st1" d="M589,0.5c0.2,0,0.7,0,1,0c1.2,0,2.4,0,4.1,0C592.3,0.4,590.7,0.4,589,0.5z"/>
			<path class="st1" d="M641.6,1.1c-0.2,0-0.5,0-0.5,0.1L641.6,1.1z"/>
			<path class="st1" d="M637.1,0.5c0.5,0,0.7,0,1.2,0C638.3,0.5,638.1,0.4,637.1,0.5z"/>
			<path class="st1" d="M474.6,2.4c1.9-0.2,3.1-0.2,4.5-0.1l-1.4-0.5L474.6,2.4z"/>
			<path class="st1" d="M297.7,2.5l3.1,0.1c-3.8,0.2-6.7,0.1-3.6,0.4c0.5-0.5,12.4,0,12.9-0.6l2.2,0.1c-0.7,0-0.7,0-1.2,0
				c4.1,0.2,3.1-0.4,8.4-0.4c1.9,0,3.1,0.1,1.9,0.1l4.1-0.1c1.2,0,1,0.1-0.2,0.1h6.2c1-0.1,2.9-0.2,3.8-0.2c1.7,0.1-0.7,0-0.5,0.1
				l3.6-0.1c1.4,0.1-1.4,0.2-3.8,0.2c3.4,0.5,2.9-0.1,9.8,0.1L341,2.5c2.2,0.4,4.8,0.2,8.4,0.4c-1-0.1-7.4-0.5-3.6-0.6
				c1,0,2.4,0,4.5,0c0,0.2,1.9,0.1,4.5,0.1l-0.2,0.2c2.6-0.1,2.4-0.2,4.1-0.4c3.1,0,3.6,0.2,4.3,0.4c4.8,0-3.4-0.4,2.4-0.4
				c4.1,0.1,6.7,0,11.5-0.1c2.9,0.1-0.5,0.1,0.5,0.2l2.4-0.2c0.7,0,0.5,0.1,0.2,0.1c2.2-0.1,0.2-0.2,3.4-0.4c1-0.2,6.7,0.4,10.8,0.1
				c1,0.1-0.5,0.1-0.2,0.2c5.5-0.2,4.8-0.1,9.3-0.5l3.8,0.1c-2.9-0.2,0.7-0.4,4.1-0.6c-1-0.1-1.9-0.1-2.4-0.2l5.3,0.1
				c0.7,0,0,0.1-0.7,0.2c0.2,0,0.7,0,1,0c1.9,0.1,1,0.2-0.5,0.4c-0.7,0-1.2-0.1-1.9-0.1c-1.2,0.1-2.4,0.4-2.2,0.5c0.2,0,1,0,1.7-0.1
				C411.3,1.9,411,2,411,2c0.2,0,0.7,0,1.4-0.1l1.2,0.2l0.2-0.1l6.7,0.1c4.8-0.2,8.9-0.7,16.5-0.8c-1.9,0.2-0.5,0.4-0.5,0.6
				c-2.2-0.2-6,0.1-9.8,0c2.2,0,1.7,0.1,1,0.2l6.9-0.2C434.4,2.1,436,2,438,2.1c-1.4-0.4,5.3-0.2,8.1-0.4c0.2,0.1-0.5,0.2-4.1,0.2
				c3.8,0.2,5-0.5,8.9-0.2c-1,0-1.2,0-1.7,0c1.9-0.1,6.9,0,5.7,0.1h-1c5.7,0,17.2,0,18-0.4c0,0-0.7,0.4-1.2,0.5l10.8-1
				c-1,0.2,2.6,1-2.2,1.1c1.4,0,3.1,0.1,5.7,0c-1,0-2.4-0.4-1-0.5c3.4,0.4,2.4,0.1,6.7,0.5c-1.4,0,0.2-0.5,2.4-0.5
				c-0.2,0.1,0.2,0.5-0.7,0.5l5.5-0.5c-1.4,0.1-0.2,0.4,1,0.5c-0.5-0.1,4.8,0,6.2,0l-2.4-0.1c6.2,0.1,6-0.6,12.2-0.6
				c-0.7,0.1-1.9,0.6,1.2,0.6c1.4-0.2,6.2-1.1,11.7-1.2l1,0.1L533,1c-2.6,0.4-9.8,1.1-13.6,1.3c2.4,0.1,0.7,0.1,4.1,0.1
				c1.2,0.1-1.9,0.2-2.9,0.2l7.9,0.1c-0.5-0.2,6-0.2,5.7-0.5l-8.6,0.2c-0.2-0.2,5-0.7,10.5-0.7c1.4,0.1-1,0.5-1,0.6
				c0.7-0.1,5.3-0.1,6-0.1l-2.4,0.1c3.1,0.1,5-0.4,8.9-0.1c1.2,0,3.8,0.4,4.1,0.2c-2.2-0.4-2.6-1.2-1.2-1.4c0.5,0,6.9,0.2,8.4,0.5
				c2.2,0.2-3.1,0.6-1.4,0.7c0-0.1,1.2-0.1,1.7-0.2c1.4,0.1-0.5,0.2,2.4,0.2c0.5-0.2,6,0,1.4-0.2c2.9-0.1,3.1,0,6.5,0
				c-1.2-0.1,3.1-0.6,6-0.7c-0.2,0.1,0.5,0.1,0.7,0.2c6,0,9.1,0.1,14.8,0.1c0.5,0.1,3.1,0.1,2.2,0.2c0.7,0,1.4-0.1,3.4-0.1
				c3.3,0.2-3.8,0-1.2,0.4c0.2-0.1,4.5-0.2,6.9-0.4c-0.7-0.2-5.7,0-8.1,0c0-0.4,4.3-0.7,10.1-0.8c4.3,0,1.7,0.2,2.6,0.2
				c8.6,0,7.4-0.6,14.6-0.4c2.9,0.2,0.2,0.4,0.7,0.6c-3.8,0.1-5.7-0.1-8.4-0.1l3.1,0.1c-1.2,0.1-3.8,0.1-5,0.1
				c2.4,0.2,14.6,0,21.3,0.2c1.2-0.1,3.4-0.1,2.2-0.2H633c-1.7-0.2,4.3-0.4,1.4-0.4c2.9-0.1,6-0.4,10.1-0.2l0.7,0.2
				c0-0.1-2.6-0.1-3.8-0.1c1.7-0.1,6.2,0.4,7.9,0L646.4,1c3.1-0.1,6.7-0.4,10.3-0.4c-1.7-0.2-0.7,0-3.3-0.2c2.2,0.4-9.1,0-5.5,0.4
				c-2.6-0.4-4.5-0.1-7.9-0.4c0,0.1,1.2,0.1-1.7,0.1h-0.7h-0.2h0.2c0.7,0,1.2,0.1,1.4,0.1c-1.4,0.2-6.2,0.2-7.9,0.4
				c-1.7,0,0.7-0.1-0.2-0.1L628.5,1c-0.2-0.1-4.8-0.2-0.5-0.4h-3.8c-2.2-0.1-5.3-0.1-7.2-0.1c-1.7,0-4.5,0.2-2.9,0.1l-6,0.1
				c-5.7,0-12,0.2-18.7,0c-1.9,0-4.1,0.1-7.2,0l-0.7-0.1c-2.4,0-7.4-0.1-8.6,0c-2.4-0.6-11.7-0.2-16.3-0.4l-0.2,0.2
				c-3.1,0-6,0-9.8,0.1l0.2,0.1c-3.4,0.1-8.4-0.1-13.4-0.1c0.2-0.1,1.7,0,2.6,0c-6.2-0.4-12.9,0.2-18.4,0c-1.4,0.1-2.4,0-3.3,0h0.2
				H514c-0.7,0-1.2-0.1-1.9-0.1c0.5,0,1.2,0.1,1.7,0.1c-1,0-2.6,0-4.3,0.1l-0.7-0.2h-0.5c-1.7-0.1-1.2,0.1-0.5,0.2
				c-0.7,0-1.4,0.1-2.2,0.1c-1.2-0.4-4.1,0.1-6-0.2c-1,0.1-7.9,0.1-8.9,0.5c0,0-0.5-0.1,0.2-0.1c-1.7,0-3.6-0.1-5,0l-0.7-0.2
				l-3.8,0.4c-2.4-0.1-3.4-0.2-1-0.4c-5.7,0.2-4.5,0.1-9.3,0.4l0.2-0.1c-1.7,0-4.5,0.2-5.5,0.1c-3.8-0.2-18.9,0-28.7-0.4
				c1.9,0.5-4.5-0.2-5,0.1c-0.5-0.1-1.9-0.1-0.2-0.2c-5,0.1-7.7-0.1-11,0.1c-0.5-0.1,1-0.1,0.5-0.2c-0.5,0-1.7,0.1-2.2,0
				s0.7-0.1,1.4-0.1c-5,0-5.7,0.4-6,0.7C412.1,1,410.9,1,409,1.2c-1-0.1-2.4-0.2,0.7-0.2c-1.7,0-11-0.1-11,0.1c-0.5-0.1-2.4,0-2.9,0
				c-4.1,0-4.3,0-8.4,0h1.2c-1.7,0.4-3.3,0.1-6.5,0.1c-7.4-0.2-3.1,0.1-10.3-0.1l0.5,0.2c-0.7,0.4-6.5-0.2-10.5-0.1l1.4,0.1
				c-2.4,0.1-6.5-0.6-8.6-0.6c-0.5,0,0.7,0,1.4-0.1c-6-0.2-0.7,0.2-5.3,0.4c-0.7-0.1,1-0.4-1.9-0.4c-1.4-0.1-8.6,0.5-12.9,0.1
				c1,0.1,1.9,0.2-0.2,0.2c-3.1,0-8.6-0.4-11.5-0.1c-0.5,0-0.5,0-0.5-0.1c-2.4,0.1-7.9,0.1-9.3,0.4c-2.2-0.6-15.1,0.4-15.1-0.2H292
				l0.2-0.1c-4.8,0-6.5,0.1-8.1,0.2c-1.2,0-0.2-0.1-0.2-0.1c-6.9-0.1-7.7-0.1-13.6,0.2l-0.7-0.2c-1.7,0.1-10.1-0.4-17-0.1
				c0,0,0.2,0,0.7-0.1c-7.7,0.2-18.4-0.5-21.3,0.1l-5,0.1c6.7,0-1,0.4,1.7,0.5c-2.6,0-6.7-0.2-3.6-0.2h0.5c1.2-0.4-8.1-0.1-7.9-0.4
				c-12.9,0-25.6-0.2-37.8-0.2l1.4,0.2H177c-1.2-0.1-1.4-0.2,1.4-0.2c-1.7-0.1-5,0.1-5.3,0.2c-6-0.1,2.4-0.4,0.5-0.4h-2.4h0.5
				c-1.9,0.1-2.2,0.2-5.7,0.2c-2.4,0-1.2-0.1-2.2-0.2c0,0-0.2,0-1.4,0H157l2.2,0.2c-2.4,0.1-5,0-2.6,0.2c-3.6-0.4-19.9-0.1-22-0.2
				c-3.4,0.1-6.7,0.1-10.5,0.1c1,0,1.7,0.4-1.9,0.2c1.2-0.5-6.5-0.2-9.3-0.6c2.6,0.2-10.1,0.1-6,0.4c-2.9,0-0.2-0.2-2.4-0.4
				C97.4,0.6,89,0.2,80.4,0.2c-0.2,0.1,1.2,0.1-0.5,0.2L75.4,0c-1.7,0-1.7,0.4-4.5,0.1c0.5,0,1.2,0.1,0,0.1C54.1,0,36.6,0.6,19.4,0
				c2.4,0.1,0.7,0.1-1,0.1c1.2,0,0,0.1,0.2,0.2l-7.2-0.2c-1.2,0.2-7.7,0-8.4,0.2h2.2c-3,0.3,4.4,0.7,3.9,1c3.4-0.4,8.9,0.5,14.4,0
				c1.2,0.1-1,0.1-0.5,0.2c1.4-0.1,3.1-0.2,6.2-0.1H29c8.9,0,12.7,0.1,22.5,0.2l-0.2,0.5c2.2,0,2.6,0.1,3.6,0.1c2.4-0.2-6,0-3.8-0.4
				c2.9,0.4,15.1,0,17,0.5c3.4,0-1-0.2,2.4-0.2l1,0.1l0.5,0c2.2,0,3.1,0.1,3.4,0.2c-0.5,0-1.4,0-2.2,0c2.9,0.1,7.9,0,8.9,0h-3.4
				c8.9-0.1,19.9,0,28.5-0.2L106.5,2c6.7-0.1,5.3,0.1,12.4,0h-0.2c1.4-0.1,3.3-0.1,5.3-0.1c-1.9,0.1,3.4,0.2,1,0.4
				c7.2-0.1,3.6-0.1,8.1-0.5l1.2,0.1c1.7-0.1,1.7-0.2,5.3-0.2c-2.9,0.1,2.4,0.2-1,0.4c7.7,0.4,11.2-0.4,14.8,0.1
				c3.6-0.4-6.5-0.2-4.5-0.4c-1.7-0.1,2.9-0.2,5.3-0.2c2.4,0,4.1,0.5,10.3,0.5c-0.7,0-0.7,0-1.2,0c2.2,0.1,4.5-0.1,7.2,0
				c1.7-0.2,3.6,0,4.1-0.2l-5.6,0c3.1-0.1,6.2-0.5,11.2-0.2c-0.5,0.1-1.9,0.1-3.1,0.2c1.4,0.1,2.9,0,4.5,0
				c-0.5,0.4-6.7,0.1-10.3,0.4c1.7,0.1,6.5-0.2,4.8,0.1c2.4-0.5,6,0,10.1-0.2L186,2.4c0.7,0,1.9-0.1,3.1-0.1l-2.2,0.2
				c3.4-0.2,6.5,0.1,9.6,0.1c-6.7,0-1.4-0.2-4.3-0.4c8.4-0.2,4.8,0.5,14.1,0.4c-1.2,0-4.8-0.1-2.6-0.2c1.7,0,4.1,0.1,5.3,0.2
				c6.2,0-1-0.2,1.7-0.4c2.2,0.2,3.1-0.1,5.7-0.1v0.2c6.9,0.1,1.9-0.4,8.1-0.2l-2.6,0.2l3.4-0.1l-0.7,0.2c3.6-0.1,4.8-0.1,8.1-0.1
				c-0.7-0.1,0.5-0.4,3.6-0.4c2.2,0.1-1.2,0.1,3.1,0.1c-1,0.1-2.2,0.2-4.1,0.1l-1.2,0.1c2.2,0.1,5.7,0,7.2,0c-0.7,0-1.4,0-1.7,0
				l6.5-0.2c1,0.1,0.2,0.1-0.5,0.2c1.2,0,2.2-0.1,4.1-0.1c-0.5,0.1-0.5,0.4-3.1,0.4l6-0.1c0.5,0.1,3.1,0.1,2.4,0.2
				c3.4,0.1,8.1-0.4,12.7-0.1c0.2,0,0.7-0.1,1.7-0.1c4.1,0,7.9,0.2,12.9,0l2.9,0.2c3.8-0.1-3.8-0.4,2.6-0.5c4.5-0.1,1.7,0.2,3.4,0.4
				c2.4-0.1,6.2-0.4,10.5-0.2C300.1,2.5,298.9,2.4,297.7,2.5z M345.6,2.4c-1,0-2.9,0.1-3.4,0C343.2,2.2,343.9,2.3,345.6,2.4z
				 M418.4,1.9c-0.7,0-1.7,0-2.9,0C416.4,1.8,417.4,1.8,418.4,1.9z M621.5,0.6C619.4,0.5,620.1,0.6,621.5,0.6L621.5,0.6z M625.9,0.7
				C626.1,0.6,626.1,0.6,625.9,0.7c0,0-1,0-2.2,0C623.9,0.7,624.4,0.7,625.9,0.7z M163.7,0.7h1C162.7,0.8,163.2,0.8,163.7,0.7z"/>
			<path class="st1" d="M410.2,2.2L409.7,2C409.5,2,409.5,2.2,410.2,2.2z"/>
			<path class="st1" d="M267.8,2.5h-0.2v0.1L267.8,2.5z"/>
			<path class="st1" d="M559.1,2.3c-1,0-1.4,0-1.7-0.1C557.4,2.2,557.6,2.3,559.1,2.3z"/>
			<path class="st1" d="M648.6,0.4h-2.9c1.4,0,1.9,0,2.4,0C648.1,0.5,647.6,0.4,648.6,0.4z"/>
			<path class="st1" d="M672.5,1.6c0.5,0,1,0,1.2,0V1.4C671.8,1.4,670.6,1.4,672.5,1.6z"/>
			<path class="st1" d="M651,1c0.2,0.1,1.9,0.1,3.8,0.1h-0.2C655.3,0.8,653.1,1,651,1z"/>
			<path class="st1" d="M655.5,1.1c0.7,0,1.2,0,1.7,0C657.4,1,656.5,1.1,655.5,1.1z"/>
			<path class="st1" d="M631.1,0.6c1,0,0.5-0.2,1.2-0.1C633.3,0.2,626.1,0.7,631.1,0.6z"/>
			<path class="st1" d="M652.7,1.6L652,1.4l-1,0.1L652.7,1.6z"/>
			<path class="st1" d="M637.3,1.3h3.1c0,0,0.2,0,0.7-0.1C639.5,1.3,637.3,1.3,637.3,1.3z"/>
			<path class="st1" d="M604.3,1.3H601c-0.2,0.1,0.5,0.1,1.9,0.1C603.6,1.4,604.8,1.4,604.3,1.3z"/>
			<path class="st1" d="M614.4,1.8c-1,0-1-0.1-1.4-0.1v0.2L614.4,1.8z"/>
			<path class="st1" d="M604.6,1.9c-0.2,0.1-4.8,0.2-0.7,0.1C604.3,2,607.7,1.9,604.6,1.9z"/>
			<path class="st1" d="M553.8,1.6h1l-0.2-0.4L553.8,1.6z"/>
			<path class="st1" d="M509.3,2.5c4.1,0.1,1-0.2,4.5-0.1c1-0.1-2.9-0.1-1.9-0.1C509.3,2.4,508.1,2.3,509.3,2.5z"/>
			<path class="st1" d="M511.7,2.3c0.5,0,0.7,0,1.2,0C512.2,2.2,511.9,2.3,511.7,2.3z"/>
			<path class="st1" d="M7.2,0.6L4.5,0.5l1.7,0.1H7.2z"/>
			<path class="st1" d="M2.2,0.8L1.4,0.6L0,0.8C0.5,0.8,1.7,0.8,2.2,0.8z"/>
			<path class="st1" d="M352.8,2.9c-0.2-0.1-0.7-0.1-1.9-0.1L352.8,2.9z"/>
			<path class="st1" d="M317.8,2.6h0.7l-1.2-0.2L317.8,2.6z"/>
			<path class="st1" d="M288.6,3c1.2,0,2.6,0,3.8,0C289.8,3,288.4,2.6,288.6,3z"/>
		</g>
	</g>
</g>
</svg>
