<svg width="36" height="36" viewBox="0 0 36 36" fill="none" xmlns="http://www.w3.org/2000/svg">
<path d="M17.9886 0.0229492C27.6924 0.0382196 35.9543 7.76505 35.9543 18.0344C35.9466 28.0365 27.9899 36 17.9886 36C7.7203 36 -0.0076231 27.7082 5.64319e-06 17.9733C0.00763439 8.07809 8.07122 0.0229492 17.9886 0.0229492ZM15.1507 18.0726C15.1507 21.6535 15.1507 25.1733 15.1507 28.6855C16.5849 28.6855 17.981 28.6855 19.4152 28.6855C19.4152 25.1428 19.4152 21.6306 19.4152 18.0726C20.4832 18.0726 21.5054 18.0726 22.5582 18.0726C22.6879 16.6372 22.8176 15.2399 22.9473 13.7969C22.3522 13.7969 21.8106 13.7969 21.2689 13.7969C20.712 13.7969 20.1551 13.7969 19.5677 13.7969C19.5677 13.2548 19.5677 12.7585 19.5677 12.2622C19.5677 11.3612 19.8576 11.0711 20.7578 11.0711C21.452 11.0711 22.1462 11.0711 22.871 11.0711C22.871 9.84182 22.871 8.65073 22.871 7.46728C22.8252 7.45201 22.7871 7.42146 22.7565 7.42146C21.5207 7.42146 20.2848 7.35275 19.0566 7.43673C17.0197 7.57417 15.7228 8.67364 15.288 10.5672C15.1583 11.1169 15.1583 11.6972 15.1278 12.2698C15.1049 12.7585 15.1202 13.2548 15.1202 13.7969C14.3954 13.7969 13.7165 13.7969 13.0452 13.7969C13.0452 15.2399 13.0452 16.6372 13.0452 18.0573C13.747 18.0726 14.4107 18.0726 15.1507 18.0726Z" fill="white"/>
</svg>
