<svg width="26" height="18" viewBox="0 0 26 18" fill="none" xmlns="http://www.w3.org/2000/svg">
<path d="M15.7523 1.84486C15.6195 1.84486 15.5234 1.84486 15.4273 1.84486C11.3896 1.84486 7.35657 1.84486 3.31893 1.84486C2.66888 1.84486 2.24314 1.41912 2.29807 0.828586C2.3347 0.42116 2.64141 0.0869786 3.04884 0.0183113C3.16328 0 3.27773 0 3.39217 0C7.76399 0 12.1358 0 16.5076 0C17.2492 0 17.5972 0.352492 17.5972 1.09868C17.5972 1.26348 17.5972 1.42828 17.5972 1.62055C17.7024 1.62055 17.7848 1.62055 17.8672 1.62055C18.8515 1.62055 19.8357 1.62513 20.8199 1.61597C21.2823 1.61139 21.5982 1.80366 21.8042 2.22024C22.5412 3.70346 23.2782 5.1821 24.0382 6.65158C24.203 6.97202 24.4364 7.26043 24.6562 7.55341C24.972 7.97457 25.2971 8.38657 25.6221 8.80315C25.7823 9.00458 25.8601 9.22431 25.8601 9.47609C25.8556 11.1928 25.8601 12.9095 25.8555 14.6261C25.8555 15.2213 25.4802 15.5921 24.8805 15.5966C24.2075 15.6012 23.5392 15.6012 22.8662 15.5921C22.7289 15.5921 22.674 15.6333 22.6236 15.766C22.12 17.1256 20.884 18 19.4695 17.9954C18.0549 17.9954 16.8281 17.1256 16.3199 15.7614C16.2696 15.6287 16.2055 15.5921 16.0727 15.5921C14.6628 15.5966 13.2482 15.5966 11.8383 15.5921C11.6963 15.5921 11.6277 15.6287 11.5773 15.7706C11.0875 17.1165 9.85148 17.9863 8.44151 17.9908C7.03154 18 5.79095 17.1302 5.28281 15.766C5.23246 15.6287 5.16837 15.5829 5.02188 15.5829C4.43592 15.5921 3.84538 15.5875 3.25942 15.5875C2.69634 15.5829 2.2935 15.2075 2.28434 14.6811C2.27976 14.1455 2.68261 13.7518 3.25484 13.7518C3.8408 13.7472 4.43134 13.7472 5.0173 13.7518C5.13632 13.7518 5.20499 13.7335 5.25077 13.6007C5.7818 12.1587 6.9995 11.2843 8.44151 11.2981C10.0071 11.3118 11.2248 12.3464 11.6231 13.6511C11.6323 13.6785 11.646 13.706 11.6643 13.7518C11.7284 13.7518 11.7971 13.7518 11.8657 13.7518C13.2482 13.7518 14.6262 13.7472 16.0087 13.7564C16.178 13.7564 16.2559 13.7152 16.3154 13.5458C16.764 12.2182 17.9954 11.3347 19.41 11.3026C20.8062 11.2706 22.0788 12.1267 22.587 13.4359C22.6236 13.5366 22.6602 13.6373 22.6969 13.7426C23.1226 13.7426 23.5483 13.7426 24.0015 13.7426C24.0061 13.6694 24.0107 13.5961 24.0107 13.5229C24.0107 12.3235 24.0153 11.1287 24.0061 9.9293C24.0061 9.81943 23.9603 9.69125 23.8962 9.59969C23.6124 9.21516 23.3057 8.83978 23.0173 8.45524C22.9303 8.34079 22.8388 8.29501 22.6923 8.29501C20.733 8.29959 18.7691 8.29959 16.8098 8.29959C16.0956 8.29959 15.7477 7.95168 15.7477 7.22838C15.7477 5.53459 15.7477 3.84079 15.7477 2.147C15.7523 2.0646 15.7523 1.97304 15.7523 1.84486ZM17.6063 6.45015C19.03 6.45015 20.4263 6.45015 21.8454 6.45015C21.8271 6.40437 21.8225 6.37691 21.8088 6.34944C21.3464 5.4293 20.8886 4.50916 20.4171 3.59359C20.3805 3.52492 20.2569 3.46541 20.1699 3.46083C19.5427 3.45168 18.9201 3.45626 18.293 3.45626C18.0687 3.45626 17.8398 3.45626 17.6017 3.45626C17.6063 4.46796 17.6063 5.44761 17.6063 6.45015ZM8.43693 13.1567C7.60835 13.1567 6.93541 13.8204 6.93541 14.649C6.93083 15.473 7.59919 16.1506 8.4232 16.1551C9.26094 16.1597 9.94304 15.4822 9.93846 14.6536C9.93388 13.825 9.26094 13.1567 8.43693 13.1567ZM19.4695 16.1506C20.2935 16.1506 20.971 15.4776 20.9756 14.6582C20.9802 13.8342 20.3072 13.1567 19.4832 13.1521C18.6455 13.1475 17.968 13.8204 17.968 14.6536C17.9725 15.4822 18.6409 16.1506 19.4695 16.1506Z" fill="white"/>
<path d="M5.67188 3.31877C6.79802 3.31877 7.92875 3.31877 9.05489 3.31877C9.65001 3.31877 10.0529 3.69873 10.0483 4.2435C10.0437 4.7791 9.64085 5.15449 9.05947 5.15449C6.78887 5.15449 4.51827 5.15449 2.24767 5.15449C1.75784 5.15449 1.38704 4.8203 1.32295 4.34421C1.26344 3.90474 1.55184 3.46984 1.99131 3.35539C2.10118 3.32793 2.21562 3.32335 2.33007 3.32335C3.44706 3.31419 4.55947 3.31877 5.67188 3.31877Z" fill="white"/>
<path d="M4.37176 8.33168C3.22731 8.33168 2.08285 8.33625 0.938395 8.33168C0.52639 8.33168 0.205943 8.10736 0.0640303 7.74572C-0.0687266 7.3978 0.00451855 6.96749 0.306655 6.74776C0.48519 6.615 0.732392 6.50513 0.94755 6.50055C3.22731 6.48224 5.51164 6.48682 7.7914 6.4914C8.33158 6.4914 8.72985 6.88967 8.73443 7.40696C8.73901 7.93799 8.34073 8.3271 7.78224 8.33168C6.64236 8.33168 5.50706 8.33168 4.37176 8.33168Z" fill="white"/>
<path d="M4.11093 9.66846C4.69689 9.66846 5.28285 9.66846 5.87339 9.66846C6.46851 9.66846 6.88051 10.0484 6.88509 10.584C6.88509 11.1196 6.46851 11.5087 5.87797 11.5087C4.68773 11.5087 3.4975 11.5087 2.31185 11.5087C1.7442 11.5087 1.32761 11.1196 1.32304 10.5886C1.31846 10.0622 1.73504 9.67303 2.30727 9.66846C2.31642 9.66846 2.321 9.66846 2.33016 9.66846C2.9207 9.66846 3.51581 9.66846 4.11093 9.66846Z" fill="white"/>
</svg>
