<svg width="18" height="17" viewBox="0 0 18 17" fill="none" xmlns="http://www.w3.org/2000/svg">
<g clip-path="url(#clip0)">
<path d="M8 5.99998C8 5.59998 8.3 5.29998 8.7 5.29998H9.7L6 1.59998L2.3 5.29998H3.3C3.7 5.29998 4 5.59998 4 5.99998V10.7C4 11.1 3.7 11.4 3.3 11.4C2.9 11.4 2.6 11.1 2.6 10.7V6.69998H0.7C0.3 6.69998 0 6.29998 0 5.99998C0 5.79998 0.1 5.59998 0.2 5.49998L5.5 0.199976C5.8 -0.100024 6.2 -0.100024 6.4 0.199976L11.7 5.49998C12 5.79998 12 6.19998 11.7 6.39998C11.6 6.49998 11.4 6.59998 11.2 6.59998H9.4V10.7C9.4 11.1 9.1 11.4 8.7 11.4H7.7L11.4 15.1L15.1 11.4H14.1C13.7 11.4 13.4 11.1 13.4 10.7V5.99998C13.4 5.59998 13.7 5.29998 14.1 5.29998C14.5 5.29998 14.8 5.59998 14.8 5.99998V10.1H16.7C16.9 10.1 17 10.2 17.2 10.3C17.5 10.6 17.5 11 17.2 11.2L11.9 16.5C11.6 16.8 11.2 16.8 11 16.5L5.7 11.2C5.6 11.1 5.5 10.9 5.5 10.7C5.5 10.3 5.8 9.99998 6.2 9.99998H8V5.99998Z" fill="#014F53"/>
</g>
<defs>
<clipPath id="clip0">
<rect width="17.4" height="16.7" fill="white"/>
</clipPath>
</defs>
</svg>
