<svg width="15" height="20" viewBox="0 0 15 20" fill="none" xmlns="http://www.w3.org/2000/svg">
<path d="M2.08287 6.97778C3.74903 7.51384 4.54916 9.46725 4.17263 12.1929C4.99159 11.0209 5.31164 9.88519 4.88804 8.6132C4.33265 6.95053 4.13497 5.27877 4.7186 3.57975C5.22692 2.10787 6.19649 1.00851 7.58966 0.227141C7.72144 0.163542 7.86264 0.109028 8.10739 0C6.22473 3.8614 7.78734 6.79607 10.5548 9.57628C10.4513 7.36847 11.7033 6.17824 13.4824 5.35145C12.5693 7.20492 13.2 8.94937 13.8119 10.6938C14.179 11.7478 14.659 12.7835 14.8944 13.8647C15.2897 15.7273 14.5555 17.2446 13.0211 18.4075C12.2116 19.0163 11.3079 19.4342 10.216 19.7613C10.3289 19.625 10.3666 19.5614 10.4136 19.5251C11.402 18.7164 11.6656 17.7715 11.0067 16.7085C10.5078 15.909 10.0748 15.1458 10.2536 14.1645C9.33112 14.846 9.31229 15.7273 9.59469 16.6903C9.03931 16.4359 8.72867 15.5546 8.92635 14.8005C9.11461 14.0918 9.30288 13.3923 9.14285 12.6563C8.964 11.8295 8.53099 11.2026 7.7591 10.7392C8.23918 12.6381 7.56142 14.5461 6.12118 15.3093C6.28121 14.4098 5.86702 13.8102 5.07631 13.3287C5.30222 14.4371 4.95393 15.3638 4.53975 16.2906C4.08791 17.3082 3.95612 18.3258 4.85039 19.198C5.16103 19.5069 5.57521 19.7159 5.96116 19.9794C5.88585 19.9884 5.81054 20.0066 5.73524 19.9975C4.32324 19.7704 3.00538 19.307 1.86637 18.4711C0.10608 17.1901 -0.439892 15.3638 0.360239 13.3196C0.604985 12.7017 0.906211 12.0839 1.32981 11.5751C2.18642 10.5484 2.32762 9.39457 2.22407 8.15892C2.18642 7.76823 2.12994 7.37755 2.08287 6.97778Z" fill="white"/>
</svg>
