<svg width="37" height="36" viewBox="0 0 37 36" fill="none" xmlns="http://www.w3.org/2000/svg">
<path d="M18.3663 35.9389C8.4489 35.9389 0.408203 27.899 0.408203 17.9733C0.408203 8.03987 8.45653 0 18.3815 0C28.2836 0 36.3243 8.04751 36.3243 17.9656C36.3243 27.8914 28.2913 35.9389 18.3663 35.9389ZM18.351 28.8C19.4038 28.8 20.4489 28.8076 21.5017 28.8C22.4705 28.7847 23.4394 28.7847 24.3853 28.5709C26.8265 28.0288 28.3523 26.54 28.9321 24.0967C29.1686 23.0965 29.1762 22.0657 29.1838 21.0426C29.1991 18.9735 29.1991 16.9043 29.1838 14.8352C29.1762 13.8503 29.1686 12.8653 28.955 11.8957C28.4438 9.58218 27.0707 8.06278 24.7744 7.41379C23.8437 7.15419 22.8901 7.10838 21.9365 7.10074C19.5411 7.08547 17.138 7.08547 14.7426 7.10074C13.9187 7.10838 13.0872 7.13892 12.2709 7.3298C10.0128 7.84136 8.51756 9.17752 7.84623 11.4146C7.56397 12.3538 7.51056 13.3311 7.51056 14.3007C7.4953 16.7287 7.4953 19.1567 7.51056 21.5847C7.51819 22.4017 7.54871 23.2187 7.73942 24.0204C8.29632 26.4407 9.76867 27.9601 12.187 28.5328C13.1787 28.7695 14.1933 28.7771 15.2003 28.7924C16.2531 28.8153 17.3059 28.8 18.351 28.8Z" fill="white"/>
<path d="M9.40253 17.9427C9.43304 16.431 9.46356 14.9268 9.5017 13.4151C9.51696 12.8195 9.6085 12.2392 9.80685 11.6742C10.2798 10.3533 11.2182 9.55164 12.5685 9.26914C13.1864 9.13934 13.8272 9.07826 14.4604 9.07062C16.0624 9.03245 17.6644 9.02481 19.2665 9.03245C20.4718 9.03245 21.6772 9.06299 22.8825 9.10116C23.5996 9.12407 24.3015 9.24623 24.9575 9.544C26.1095 10.0708 26.7884 10.9871 27.0325 12.2087C27.1546 12.8424 27.2233 13.4914 27.2309 14.1328C27.2538 16.6829 27.2461 19.2331 27.2385 21.7756C27.2385 22.4857 27.1927 23.1881 27.002 23.8753C26.5672 25.4558 25.522 26.372 23.9353 26.6698C23.3784 26.769 22.8062 26.8225 22.2417 26.8301C19.6555 26.8454 17.0694 26.8454 14.4833 26.8301C13.7967 26.8301 13.1025 26.7767 12.4311 26.5934C10.8672 26.1659 9.95943 25.1275 9.64665 23.5546C9.45593 22.6078 9.47882 21.6382 9.45593 20.6761C9.43304 19.7675 9.4483 18.8513 9.4483 17.9427C9.42542 17.9427 9.41016 17.9427 9.40253 17.9427ZM18.351 12.369C15.3072 12.3538 12.7973 14.8428 12.7821 17.8817C12.7668 20.9892 15.2309 23.5088 18.3053 23.5241C21.4025 23.5393 23.9124 21.0655 23.9276 17.9809C23.9353 14.881 21.4559 12.3843 18.351 12.369ZM24.1412 13.4532C24.8583 13.4532 25.4458 12.8653 25.4458 12.14C25.4458 11.4299 24.8507 10.8496 24.1412 10.8496C23.4241 10.8496 22.8291 11.4452 22.8367 12.1629C22.8444 12.8806 23.4241 13.4532 24.1412 13.4532Z" fill="white"/>
<path d="M18.3586 14.316C20.365 14.3237 21.9822 15.95 21.9746 17.9504C21.967 19.9661 20.3497 21.5847 18.3357 21.5771C16.3217 21.5695 14.6968 19.9279 14.7121 17.9275C14.735 15.9194 16.3675 14.3008 18.3586 14.316Z" fill="white"/>
</svg>
