<?xml version="1.0" encoding="utf-8"?>
<!-- Generator: Adobe Illustrator 24.0.0, SVG Export Plug-In . SVG Version: 6.00 Build 0)  -->
<svg version="1.1" id="Layer_1" xmlns="http://www.w3.org/2000/svg" xmlns:xlink="http://www.w3.org/1999/xlink" x="0px" y="0px"
	 viewBox="0 0 18 18" style="enable-background:new 0 0 18 18;" xml:space="preserve">
<style type="text/css">
	.st0{fill:#FFFFFF;}
</style>
<path class="st0" d="M2.5,15.1c-0.3,0.1-0.9,0.2-1.8,0.4C0.4,15.5,0.1,15.3,0,15c-0.1-0.3,0.1-0.6,0.5-0.7c0.6-0.1,1.1-0.2,1.4-0.3
	c0-0.2,0-0.4,0-0.5c0-0.3,0.1-0.7,0.2-1c0.5-1.6,1.4-3.3,2.6-4.7c1.4-1.7,3.1-3.2,4.7-4.3c0.6-0.4,1.1-0.8,1.5-1.2
	c0.4-0.4,0.7-0.9,0.8-1.4c0-0.2,0.1-0.3,0.3-0.4c0.3-0.1,0.6,0,0.8,0.3c0.2,0.5,0.7,1.5,1,2.4c0.3,0.9,0.7,1.8,0.8,2.3
	C15,6.7,15.1,8,15,9.1c-0.2,1.6-0.8,2.9-1.7,4c-0.9,1.1-2.2,1.8-3.7,2.3c-1.2,0.3-2.6,0.5-4.1,0.3c-0.5-0.1-1-0.1-1.6-0.3
	C3.4,15.3,2.9,15.2,2.5,15.1L2.5,15.1z M11.1,7.9c-0.1,0.3-0.3,0.6-0.5,0.8c-0.1,0.2-0.2,0.4-0.4,0.6c0,0,0,0.1-0.1,0.1
	C10,9.7,9.8,9.9,9.6,10.1l-0.2,0.2c0.8,0.2,1.7,0.4,2.5,0.5c0.2,0,0.3,0.2,0.3,0.4c0,0.2-0.2,0.3-0.4,0.3c-1-0.2-2-0.4-3-0.6
	c-0.5,0.6-1.1,1-1.7,1.5c-0.2,0.2-0.5,0.4-0.7,0.5C7,13,7.4,13.1,7.8,13.2c0.2,0,0.3,0.2,0.2,0.4c0,0.2-0.2,0.3-0.4,0.2
	c-0.6-0.2-1.2-0.3-1.8-0.5c-0.5,0.3-1,0.5-1.5,0.7L4,14.3l0.2,0c0.5,0.1,1,0.2,1.4,0.2c1.4,0.1,2.6,0,3.7-0.3c1.3-0.4,2.4-1,3.1-1.9
	c0.8-0.9,1.3-2,1.4-3.4c0.1-1,0-2.1-0.3-3.4c-0.1-0.5-0.4-1.3-0.8-2.2c-0.1-0.4-0.3-0.8-0.4-1.1C12.1,2.6,12,2.8,11.8,3
	c-0.5,0.5-1.1,1-1.7,1.4C8.6,5.5,7,6.9,5.6,8.5c-1.1,1.3-2,2.8-2.4,4.3c-0.1,0.4-0.2,0.7-0.2,1.1c0.3-0.1,0.7-0.3,1-0.4
	c1-0.5,1.9-1,2.8-1.7L7,11.7l-0.2-0.6l0,0l-0.1-0.4l-0.2-0.4c-0.1-0.2,0-0.4,0.2-0.4c0.2-0.1,0.4,0,0.4,0.2l0.2,0.4l0,0l0,0l0.2,0.4
	l0,0l0.1,0.4c0.2-0.1,0.3-0.3,0.5-0.4c0.4-0.4,0.7-0.8,1.1-1.2c0.1-0.2,0.3-0.3,0.4-0.5L9.3,8.6L8.9,7.8c-0.1-0.2,0-0.4,0.2-0.5
	c0.2-0.1,0.4,0,0.5,0.2l0.3,0.8l0,0L10,8.5L10,8.4C10.3,8,10.6,7.5,10.8,7c0.2-0.5,0.4-1,0.6-1.5c0.1-0.2,0.3-0.3,0.4-0.2
	C12,5.3,12.1,5.5,12,5.7c-0.2,0.5-0.4,1.1-0.6,1.6l0.4,0.1l0.4,0.1l0,0l0.4,0.1c0.2,0,0.3,0.2,0.3,0.4c0,0.2-0.2,0.3-0.4,0.3
	l-0.4-0.1L11.7,8C11.5,8,11.3,8,11.1,7.9L11.1,7.9L11.1,7.9z"/>
</svg>
