<svg width="16" height="24" viewBox="0 0 16 24" fill="none" xmlns="http://www.w3.org/2000/svg">
<path d="M2.77672 13.6283C3.07043 13.1346 3.36414 12.6271 3.67183 12.1471C4.3012 11.1734 4.73477 10.0626 5.92358 9.55514C6.06344 9.50028 6.17533 9.28085 6.18931 9.11628C6.42707 7.15514 7.43407 5.46828 8.23127 3.71285C8.72078 2.62942 8.28721 1.68313 7.1963 1.31285C6.72078 1.14828 6.46903 1.27171 6.28721 1.71056C5.35015 3.86371 4.3991 6.00314 3.46204 8.15628C3.37812 8.34828 3.28022 8.55399 3.18232 8.74599C3.12637 8.71856 3.05644 8.69114 3.0005 8.67742C3.55994 7.27856 4.25924 5.90714 4.63686 4.45342C4.93057 3.36999 4.87463 2.17685 4.86064 1.03856C4.84665 0.51742 3.49001 -0.168294 3.0005 0.0374201C2.83267 0.105991 2.70679 0.42142 2.69281 0.627134C2.56693 3.24656 2.46903 5.87971 2.37113 8.51285C2.35714 8.81456 2.34316 9.12999 2.17532 9.43171C2.10539 8.11514 2.03547 6.78485 1.97952 5.46828C1.93756 4.49456 1.49001 3.90485 0.692807 3.76771C0.189311 3.68542 -0.0484505 3.80885 0.0214787 4.37114C0.287213 6.57914 0.497004 8.80085 0.804696 11.0089C1.33616 14.7391 1.92358 18.4694 2.48302 22.1997C2.497 22.2683 2.51099 22.3369 2.51099 22.4054C2.51099 24.202 2.9026 23.9689 4.34316 23.9689C6.03547 23.9689 7.72777 23.9414 9.42008 23.9826C10.0774 23.9963 10.3991 23.7769 10.7907 23.2283C12.1194 21.3631 13.4481 19.498 14.9865 17.7974C16.0495 16.618 16.3432 15.562 15.546 14.1906C15.2662 13.7106 15.0984 13.1346 14.9446 12.5997C14.7907 12.0511 14.4411 11.9963 13.9935 12.1609C13.3921 12.3803 13.0145 12.8054 12.9865 13.4226C12.9585 13.9163 13.0145 14.4237 13.0984 14.9037C13.1823 15.3563 13.1543 15.6854 12.6369 15.8774C11.7977 16.2066 10.9865 16.5906 10.1613 16.9334C9.67183 17.1391 9.26623 17.002 8.79071 16.7826C7.04246 16.0283 6.87463 14.5746 6.88861 13.0111C6.88861 12.8603 7.02847 12.682 7.14036 12.5586C7.32218 12.3529 7.54595 12.1746 7.74176 11.9963C8.16134 11.626 8.45505 11.0363 9.23826 11.3106C9.76973 11.4889 10.3152 11.53 10.7627 11.9963C11.6718 12.9289 12.3991 12.9289 13.3222 12.2157C13.6159 11.9826 13.6858 11.8043 13.4341 11.4889C12.8886 10.8169 12.3711 10.1037 11.8257 9.43171C11.6998 9.26714 11.462 9.14371 11.2662 9.08885C10.3152 8.81456 9.29421 8.27971 8.3991 8.40314C7.504 8.54028 6.74875 9.39056 5.89561 9.87056C5.14036 10.2957 4.79071 11.0089 4.37113 11.6809C3.92358 12.3803 3.49001 13.0797 3.04246 13.7791C2.94456 13.738 2.86064 13.6831 2.77672 13.6283Z" fill="white"/>
</svg>
