<svg width="13" height="16" viewBox="0 0 13 16" fill="none" xmlns="http://www.w3.org/2000/svg">
<g clip-path="url(#clip0)">
<path d="M0.605201 1.2104C0.264775 1.2104 0 0.945626 0 0.605201C0 0.264775 0.264775 0 0.605201 0H11.9149C12.2553 0 12.5201 0.264775 12.5201 0.605201C12.5201 0.945626 12.2553 1.2104 11.9149 1.2104H11.4232C11.3475 3.21513 10.9314 4.69031 10.2884 5.82506V5.86288C9.64539 6.95981 8.77541 7.67849 7.90544 8.13239C8.81324 8.58629 9.64539 9.30497 10.2884 10.4019V10.4397C10.8936 11.4988 11.3097 12.8983 11.4232 14.7896H11.9527C12.2931 14.7896 12.5579 15.0544 12.5579 15.3948C12.5579 15.7352 12.2931 16 11.9527 16H0.605201C0.264775 16 0 15.7352 0 15.3948C0 15.0165 0.264775 14.7518 0.605201 14.7518H1.13475C1.2104 12.8605 1.6643 11.461 2.2695 10.4019V10.3641C2.91253 9.26714 3.78251 8.54846 4.65248 8.09456C3.74468 7.64066 2.91253 6.92199 2.2695 5.82506V5.78723C1.62648 4.72813 1.2104 3.21513 1.13475 1.2104H0.605201ZM10.591 14.7518C10.2128 13.4657 9.45626 12.5201 8.51064 11.9905C7.82979 11.5745 7.03546 11.3853 6.24113 11.3853C5.44681 11.3853 4.69031 11.5745 4.00946 11.9905C3.06383 12.5201 2.30733 13.4657 1.92908 14.7518H10.591ZM2.15603 12.6714C2.5721 12.104 3.10166 11.6879 3.63121 11.3475C4.42553 10.8936 5.33333 10.6667 6.24113 10.6667C7.14894 10.6667 8.05674 10.8936 8.85106 11.3475C9.41844 11.6879 9.91017 12.104 10.3262 12.6714C10.1371 11.9149 9.91017 11.3097 9.56974 10.7801V10.7423C8.85106 9.45626 7.75414 8.77541 6.69504 8.47281L6.65721 8.43499C6.61939 8.43499 6.61939 8.43499 6.58156 8.39716H6.54374L6.50591 8.35934C6.50591 8.35934 6.46809 8.32151 6.46809 8.28369C6.46809 8.24586 6.46809 8.20804 6.43026 8.20804V8.17021V8.13239V8.09456C6.43026 8.05674 6.43026 8.01891 6.46809 8.01891C6.46809 7.98109 6.50591 7.98109 6.50591 7.94326L6.54374 7.90544L6.58156 7.86761C6.61939 7.86761 6.61939 7.82979 6.65721 7.82979H6.69504C7.75414 7.48936 8.81324 6.80851 9.56974 5.52246C10.1371 4.50118 10.5532 3.13948 10.591 1.28605H1.85343C1.92908 3.13948 2.30733 4.50118 2.8747 5.52246C3.63121 6.80851 4.69031 7.48936 5.74941 7.82979H5.78723C5.82506 7.82979 5.82506 7.86761 5.86288 7.86761L5.90071 7.90544L5.93853 7.94326C5.93853 7.94326 5.97636 7.98109 5.97636 8.01891C5.97636 8.05674 6.01418 8.09456 6.01418 8.09456V8.13239V8.17021V8.20804C6.01418 8.24586 6.01418 8.28369 5.97636 8.28369C5.97636 8.32151 5.93853 8.32151 5.93853 8.35934L5.90071 8.39716H5.86288C5.86288 8.39716 5.82506 8.43499 5.78723 8.43499L5.74941 8.47281C4.69031 8.81324 3.63121 9.49409 2.8747 10.7423V10.7801C2.60993 11.3097 2.34515 11.9149 2.15603 12.6714ZM3.06383 4.34988C3.32861 5.03073 3.70686 5.63593 4.19858 6.16548C4.65248 6.61939 5.25768 6.99764 5.93853 7.18676L6.05201 7.22459H6.08983C6.08983 7.22459 6.12766 7.22459 6.16548 7.26241C6.27896 7.30024 6.35461 7.26241 6.43026 7.22459L6.54374 7.18676C7.26241 6.95981 7.82979 6.61939 8.28369 6.16548C8.77541 5.67376 9.19149 5.03073 9.41844 4.34988C9.49409 4.16076 9.41844 3.93381 9.19149 3.89598C9.00236 3.82033 8.77541 3.89598 8.69976 4.12293C8.47281 4.69031 8.13239 5.21986 7.71631 5.67376C7.33806 6.05201 6.84634 6.35461 6.27896 6.54374H6.24113H6.20331H6.16548H6.12766H6.08983C5.52246 6.35461 5.03073 6.05201 4.65248 5.67376C4.19858 5.25768 3.89598 4.72813 3.66903 4.12293C3.59338 3.93381 3.36643 3.82033 3.21513 3.89598C3.06383 3.93381 2.98818 4.16076 3.06383 4.34988Z" fill="#014F53"/>
</g>
<defs>
<clipPath id="clip0">
<rect width="12.5201" height="16" fill="white"/>
</clipPath>
</defs>
</svg>
