<svg width="16" height="19" viewBox="0 0 16 19" fill="none" xmlns="http://www.w3.org/2000/svg">
<path d="M1.35731 18.1786C1.35731 18.5508 1.06223 18.9231 0.649115 18.9231C0.295016 18.9231 -0.059082 18.6129 -0.059082 18.1786C-0.059082 16.8757 0.472065 15.883 1.18026 15.1385C2.18354 14.1458 3.54092 13.7115 4.36715 13.6494C4.5442 13.6494 4.66223 13.5874 4.78026 13.4633C4.83928 13.4013 4.8983 13.3392 4.8983 13.2151C4.24911 12.6567 3.95403 11.8502 3.71797 11.2298C3.65895 10.8575 3.54092 10.6093 3.4819 10.5473C3.18682 10.2991 2.77371 9.74073 2.59666 9.1203C2.36059 8.49987 2.30157 7.87945 2.65567 7.25902C2.41961 6.70063 2.36059 6.14224 2.36059 5.52182C2.36059 4.71526 2.47862 3.9087 2.71469 3.22623V3.10214C3.06879 2.04741 3.59993 1.3029 4.36715 0.806557C5.13436 0.310214 6.07862 0 7.14092 0C7.55403 0 8.08518 0 8.61633 0.0620429C9.20649 0.186129 9.79666 0.4343 10.1508 0.930643C10.859 0.8686 11.5081 1.3029 11.9803 1.92333C12.5704 2.66784 13.0426 3.72257 13.1016 4.40504C13.1606 4.90139 13.1606 5.39773 13.1016 5.89407C13.0426 6.32837 12.9835 6.76267 12.8655 7.19697C13.2196 7.8174 13.1606 8.49987 12.9835 9.1203C12.7475 9.74073 12.3934 10.2371 12.0983 10.5473C12.0393 10.6093 11.9212 10.9195 11.8032 11.2298C11.5671 11.8502 11.2721 12.6567 10.6229 13.2151C10.6229 13.3392 10.6819 13.4013 10.7409 13.4633C10.859 13.5874 10.977 13.6494 11.154 13.6494C11.9803 13.7115 13.3376 14.1458 14.3409 15.1385C15.0491 15.883 15.5803 16.8757 15.5803 18.1786C15.5803 18.5508 15.2852 18.9231 14.8721 18.9231C14.518 18.9231 14.1639 18.6129 14.1639 18.1786C14.1639 17.31 13.8098 16.6895 13.3376 16.1932C12.6294 15.4487 11.5671 15.1385 10.977 15.0764C10.5049 15.0144 10.0327 14.8282 9.67862 14.456C9.32452 14.0837 8.79338 12.6567 9.44256 12.1604C9.91469 11.8502 10.2098 11.2298 10.3868 10.6714C10.5639 10.175 10.7409 9.74073 11.036 9.43052C11.213 9.24439 11.4491 8.93417 11.5671 8.56192C11.6852 8.31375 11.6852 8.00353 11.5081 7.8174C11.3311 7.63127 11.2721 7.19697 11.3311 6.9488C11.4491 6.5145 11.5671 6.0802 11.6262 5.6459C11.6852 5.27364 11.6852 4.90139 11.6262 4.52913C11.5671 4.09483 11.2721 3.35032 10.7999 2.79193C10.5639 2.48171 10.3278 2.29559 10.0917 2.35763C9.85567 2.41967 9.61961 2.35763 9.38354 2.23354C9.20649 2.10946 9.02944 1.98537 8.91141 1.79924L9.08846 1.86129C8.97043 1.67516 8.73436 1.61311 8.43928 1.55107C8.02616 1.48903 7.55403 1.48903 7.19993 1.48903C6.3737 1.48903 5.66551 1.67516 5.13436 2.04741C4.60321 2.35763 4.24911 2.91602 4.01305 3.59849V3.66053C3.77698 4.21892 3.71797 4.90139 3.71797 5.45977C3.71797 6.01816 3.836 6.5145 3.95403 7.01084C4.01305 7.13493 4.07207 7.32106 4.01305 7.50719C3.95403 8.00353 3.59993 8.00353 3.77698 8.62396C3.89502 8.93417 4.13108 9.30643 4.30813 9.43052C4.60321 9.74073 4.78026 10.113 4.95731 10.6093C5.19338 11.1677 5.42944 11.8502 5.90157 12.1604C6.13764 12.2845 6.25567 12.5327 6.25567 12.7808C6.25567 13.4013 6.13764 13.9596 5.72452 14.3939C5.42944 14.7662 4.95731 14.9523 4.42616 15.0144C3.836 15.0764 2.83272 15.3866 2.06551 16.1311C1.71141 16.6895 1.35731 17.31 1.35731 18.1786Z" fill="#FFFCF2"/>
</svg>
