<svg width="25" height="6" viewBox="0 0 25 6" fill="none" xmlns="http://www.w3.org/2000/svg">
<path fill-rule="evenodd" clip-rule="evenodd" d="M6.13249 3C6.13249 4.65685 4.75969 6 3.06625 6C1.37281 6 0 4.65685 0 3C0 1.34315 1.37281 0 3.06625 0C4.75969 0 6.13249 1.34315 6.13249 3ZM15.265 3C15.265 4.65685 13.8922 6 12.1988 6C10.5053 6 9.13251 4.65685 9.13251 3C9.13251 1.34315 10.5053 0 12.1988 0C13.8922 0 15.265 1.34315 15.265 3ZM21.3313 6C23.0247 6 24.3975 4.65685 24.3975 3C24.3975 1.34315 23.0247 0 21.3313 0C19.6378 0 18.265 1.34315 18.265 3C18.265 4.65685 19.6378 6 21.3313 6Z" fill="white" fill-opacity="0.4"/>
</svg>
