<svg width="32" height="32" viewBox="0 0 32 32" fill="none" xmlns="http://www.w3.org/2000/svg">
<path d="M13.3317 26.3333H18.665C18.665 27.6667 17.709 29 15.9984 29C14.2877 29 13.3317 27.6667 13.3317 26.3333ZM26.9877 20.6999L25.513 18.2386C24.9544 17.3066 24.6597 16.2399 24.6597 15.1559V11.6533C24.6597 6.88132 20.7744 3 15.9997 3C11.225 3 7.33969 6.88132 7.33969 11.6533V15.1559C7.33969 16.2399 7.04502 17.3066 6.48635 18.2386L5.01168 20.6999C4.56102 21.4492 4.55037 22.3532 4.98237 23.1159C5.41437 23.8786 6.19568 24.3333 7.07168 24.3333H24.9304C25.8077 24.3333 26.589 23.8772 27.021 23.1159C27.449 22.3546 27.4384 21.4505 26.9877 20.6999Z" fill="white"/>
</svg>
