<svg width="49" height="48" viewBox="0 0 49 48" fill="none" xmlns="http://www.w3.org/2000/svg">
<path d="M43.5938 16.3799C43.5938 11.3199 39.5938 7.1799 34.5938 6.8999V6.5C34.5938 5.4 33.6938 4.5 32.5938 4.5C31.4938 4.5 30.5938 5.4 30.5938 6.5V6.83984H18.5938V6.5C18.5938 5.4 17.6938 4.5 16.5938 4.5C15.4938 4.5 14.5938 5.4 14.5938 6.5V6.8999C9.59378 7.1799 5.59378 11.3199 5.59378 16.3799V20.1602C5.59378 20.2202 5.61376 20.2798 5.63376 20.3398C5.61376 20.3798 5.59378 20.44 5.59378 20.5V34.5C5.59378 39.46 9.63378 43.5 14.5938 43.5H34.5938C39.5538 43.5 43.5938 39.46 43.5938 34.5V20.5C43.5938 20.44 43.5738 20.3798 43.5538 20.3398C43.5738 20.2798 43.5938 20.2202 43.5938 20.1602V16.3799ZM16.5938 36.5C15.4938 36.5 14.5938 35.6 14.5938 34.5C14.5938 33.4 15.4938 32.5 16.5938 32.5C17.6938 32.5 18.5938 33.4 18.5938 34.5C18.5938 35.6 17.6938 36.5 16.5938 36.5ZM16.5938 28.5C15.4938 28.5 14.5938 27.6 14.5938 26.5C14.5938 25.4 15.4938 24.5 16.5938 24.5C17.6938 24.5 18.5938 25.4 18.5938 26.5C18.5938 27.6 17.6938 28.5 16.5938 28.5ZM24.5938 36.5C23.4938 36.5 22.5938 35.6 22.5938 34.5C22.5938 33.4 23.4938 32.5 24.5938 32.5C25.6938 32.5 26.5938 33.4 26.5938 34.5C26.5938 35.6 25.6938 36.5 24.5938 36.5ZM24.5938 28.5C23.4938 28.5 22.5938 27.6 22.5938 26.5C22.5938 25.4 23.4938 24.5 24.5938 24.5C25.6938 24.5 26.5938 25.4 26.5938 26.5C26.5938 27.6 25.6938 28.5 24.5938 28.5ZM32.5938 36.5C31.4938 36.5 30.5938 35.6 30.5938 34.5C30.5938 33.4 31.4938 32.5 32.5938 32.5C33.6938 32.5 34.5938 33.4 34.5938 34.5C34.5938 35.6 33.6938 36.5 32.5938 36.5ZM32.5938 28.5C31.4938 28.5 30.5938 27.6 30.5938 26.5C30.5938 25.4 31.4938 24.5 32.5938 24.5C33.6938 24.5 34.5938 25.4 34.5938 26.5C34.5938 27.6 33.6938 28.5 32.5938 28.5ZM39.5938 19.5H9.59378V16.3799C9.59378 13.4799 11.8338 11.1199 14.6738 10.8799C14.8538 11.7999 15.6338 12.5 16.5938 12.5C17.5738 12.5 18.3538 11.7798 18.5338 10.8398H30.6538C30.8338 11.7798 31.6138 12.5 32.5938 12.5C33.5538 12.5 34.3338 11.7999 34.5138 10.8799C37.3538 11.1199 39.5938 13.4999 39.5938 16.3799V19.5Z" fill="#00B012"/>
</svg>
