<svg width="32" height="32" viewBox="0 0 32 32" fill="none" xmlns="http://www.w3.org/2000/svg">
<path d="M22.6667 4H9.33333C6.02667 4 3.33334 6.69333 3.33334 10V27.3333C3.33334 27.6 3.49333 27.8399 3.74667 27.9466C3.82667 27.9866 3.92 28 4 28C4.17334 28 4.34668 27.9335 4.46668 27.8001L7.69332 24.5866C8.06665 24.2133 8.57332 24 9.10665 24H22.6667C25.9733 24 28.6667 21.3067 28.6667 18V10C28.6667 6.69333 25.9733 4 22.6667 4ZM10.6667 15.6667C9.74667 15.6667 9 14.92 9 14C9 13.08 9.74667 12.3333 10.6667 12.3333C11.5867 12.3333 12.3333 13.08 12.3333 14C12.3333 14.92 11.5867 15.6667 10.6667 15.6667ZM16 15.6667C15.08 15.6667 14.3333 14.92 14.3333 14C14.3333 13.08 15.08 12.3333 16 12.3333C16.92 12.3333 17.6667 13.08 17.6667 14C17.6667 14.92 16.92 15.6667 16 15.6667ZM21.3333 15.6667C20.4133 15.6667 19.6667 14.92 19.6667 14C19.6667 13.08 20.4133 12.3333 21.3333 12.3333C22.2533 12.3333 23 13.08 23 14C23 14.92 22.2533 15.6667 21.3333 15.6667Z" fill="white"/>
</svg>
