<svg width="49" height="48" viewBox="0 0 49 48" fill="none" xmlns="http://www.w3.org/2000/svg">
<path d="M27.5938 24C27.5938 25.66 26.2538 27 24.5938 27C22.9338 27 21.5938 25.66 21.5938 24C21.5938 22.34 22.9338 21 24.5938 21C26.2538 21 27.5938 22.34 27.5938 24ZM43.5938 24C43.5938 34.48 35.0738 43 24.5938 43C14.1138 43 5.59378 34.48 5.59378 24C5.59378 13.52 14.1138 5 24.5938 5C35.0738 5 43.5938 13.52 43.5938 24ZM33.9738 14.6201C33.2138 13.8801 32.1538 13.5798 31.1138 13.8398L23.0138 15.8599C19.7738 16.6799 17.2738 19.1799 16.4538 22.4199L14.4338 30.52C14.1738 31.56 14.4738 32.6199 15.2138 33.3799C15.7938 33.9399 16.5538 34.2598 17.3338 34.2598C17.5738 34.2598 17.8338 34.2202 18.0738 34.1602L26.1738 32.1401C29.4138 31.3201 31.9138 28.8201 32.7338 25.5801L34.7538 17.48C35.0138 16.44 34.7138 15.3801 33.9738 14.6201Z" fill="#FF9B00"/>
</svg>
