<svg width="32" height="32" viewBox="0 0 32 32" fill="none" xmlns="http://www.w3.org/2000/svg">
<path d="M22.6667 6H9.33333C6.02667 6 3.33334 8.69333 3.33334 12H28.6667C28.6667 8.69333 25.9733 6 22.6667 6ZM3.33334 14.6667V20C3.33334 23.3067 6.02667 26 9.33333 26H22.6667C25.9733 26 28.6667 23.3067 28.6667 20V14.6667H3.33334ZM13.3333 21.3333H9.33333C8.6 21.3333 8 20.7333 8 20C8 19.2667 8.6 18.6667 9.33333 18.6667H13.3333C14.0667 18.6667 14.6667 19.2667 14.6667 20C14.6667 20.7333 14.0667 21.3333 13.3333 21.3333Z" fill="white"/>
</svg>
