<svg width="49" height="48" viewBox="0 0 49 48" fill="none" xmlns="http://www.w3.org/2000/svg">
<path d="M43.4418 17.3367C40.9738 10.2947 34.8498 5.25901 27.4558 4.19901C25.5878 3.93301 23.6038 3.93301 21.7298 4.19901C14.3398 5.25901 8.21581 10.2946 5.75381 17.3206C4.98381 19.4486 4.59378 21.6968 4.59378 24.0008C4.59378 26.3048 4.98376 28.5509 5.74576 30.6629C8.21376 37.7049 14.3377 42.7406 21.7317 43.8006C22.6657 43.9326 23.6278 44.0008 24.5938 44.0008C25.5598 44.0008 26.5218 43.9346 27.4578 43.8006C34.8478 42.7406 40.9717 37.705 43.4337 30.679C44.2037 28.551 44.5938 26.3028 44.5938 23.9988C44.5938 21.6948 44.2038 19.4487 43.4418 17.3367ZM40.5938 23.9988C40.5938 25.3648 40.4217 26.7028 40.0797 28.0008H34.3238C34.4838 26.6728 34.5938 25.3388 34.5938 23.9988C34.5938 22.6588 34.4838 21.3248 34.3238 20.0008H40.0818C40.4218 21.2928 40.5938 22.6308 40.5938 23.9988ZM18.9018 28.0008C18.7198 26.6768 18.5938 25.3388 18.5938 23.9988C18.5938 22.6628 18.7178 21.3288 18.9018 20.0008H30.2878C30.4697 21.3248 30.5957 22.6588 30.5957 23.9988C30.5957 25.3368 30.4718 26.6708 30.2878 28.0008H18.9018ZM9.10574 28.0008C8.76574 26.7088 8.59378 25.3668 8.59378 23.9988C8.59378 22.6348 8.76574 21.2968 9.10574 20.0008H14.8638C14.7038 21.3268 14.5938 22.6608 14.5938 23.9988C14.5938 25.3408 14.7038 26.6768 14.8638 28.0008H9.10574ZM38.4118 16.0008H33.5898C33.0538 13.7388 32.2878 11.559 31.2958 9.46903C34.2838 10.841 36.7598 13.1188 38.4118 16.0008ZM25.9978 8.09696C27.5518 10.563 28.7238 13.2028 29.4838 16.0008H19.7038C20.4618 13.2108 21.6337 10.567 23.1897 8.09696C23.6577 8.05696 24.1198 7.99882 24.5938 7.99882C25.0698 7.99882 25.5318 8.05696 25.9978 8.09696ZM17.8918 9.46659C16.8978 11.5606 16.1317 13.7408 15.5957 16.0008H10.7718C12.4238 13.1208 14.9018 10.8406 17.8918 9.46659ZM10.7777 32.0008H15.5978C16.1338 34.2608 16.8998 36.4406 17.8918 38.5286C14.9058 37.1586 12.4317 34.8808 10.7777 32.0008ZM23.1878 39.9007C21.6358 37.4347 20.4638 34.7948 19.7038 32.0008H29.4817C28.7237 34.7908 27.5518 37.4327 25.9978 39.9007C25.0618 39.9787 24.1218 39.9787 23.1878 39.9007ZM31.2978 38.531C32.2898 36.439 33.0558 34.2588 33.5918 32.0008H38.4137C36.7617 34.8788 34.2858 37.159 31.2978 38.531Z" fill="#0074FF"/>
</svg>
