<svg width="49" height="48" viewBox="0 0 49 48" fill="none" xmlns="http://www.w3.org/2000/svg">
<path d="M15.0938 20.501C15.0938 19.673 15.7658 19.001 16.5938 19.001H32.5938C33.4218 19.001 34.0938 19.673 34.0938 20.501C34.0938 21.329 33.4218 22.001 32.5938 22.001H16.5938C15.7658 22.001 15.0938 21.329 15.0938 20.501ZM18.5938 16.001H30.5938C31.4218 16.001 32.0938 15.329 32.0938 14.501C32.0938 13.673 31.4218 13.001 30.5938 13.001H18.5938C17.7658 13.001 17.0938 13.673 17.0938 14.501C17.0938 15.329 17.7658 16.001 18.5938 16.001ZM44.5938 27.4751V32.501C44.5938 37.463 40.5558 41.501 35.5938 41.501H13.5938C8.63178 41.501 4.59378 37.463 4.59378 32.501V27.4751C4.59378 26.6111 4.73181 25.7589 5.00381 24.9429L8.87381 13.3369C10.2378 9.24691 14.0498 6.49902 18.3598 6.49902H30.8278C35.1378 6.49902 38.9518 9.24691 40.3138 13.3369L44.1837 24.9429C44.4557 25.7589 44.5938 26.6131 44.5938 27.4751ZM9.0358 25.501H18.5938C19.1458 25.501 19.5938 25.949 19.5938 26.501C19.5938 29.259 21.8378 31.501 24.5938 31.501C27.3498 31.501 29.5938 29.259 29.5938 26.501C29.5938 25.949 30.0418 25.501 30.5938 25.501H40.1518L36.5198 14.605C35.7018 12.149 33.4138 10.501 30.8278 10.501H18.3598C15.7738 10.501 13.4858 12.149 12.6678 14.605L9.0358 25.501Z" fill="#FF005C"/>
</svg>
