<svg width="32" height="32" viewBox="0 0 32 32" fill="none" xmlns="http://www.w3.org/2000/svg">
<path d="M17.3332 28C17.3332 28.7373 16.7358 29.3333 15.9998 29.3333H10.6665C6.99051 29.3333 3.99984 26.3427 3.99984 22.6667V9.33332C3.99984 5.65732 6.99051 2.66666 10.6665 2.66666H15.9998C16.7358 2.66666 17.3332 3.26266 17.3332 3.99999C17.3332 4.73732 16.7358 5.33332 15.9998 5.33332H10.6665C8.46117 5.33332 6.66651 7.12799 6.66651 9.33332V22.6667C6.66651 24.872 8.46117 26.6667 10.6665 26.6667H15.9998C16.7372 26.6667 17.3332 27.2627 17.3332 28ZM27.6092 15.0573L22.2758 9.72395C21.7545 9.20261 20.9118 9.20261 20.3905 9.72395C19.8692 10.2453 19.8692 11.088 20.3905 11.6094L23.4478 14.6667H13.3332C12.5972 14.6667 11.9998 15.2627 11.9998 16C11.9998 16.7373 12.5972 17.3333 13.3332 17.3333H23.4478L20.3905 20.3906C19.8692 20.9119 19.8692 21.7547 20.3905 22.276C20.6505 22.536 20.9918 22.6667 21.3332 22.6667C21.6745 22.6667 22.0158 22.536 22.2758 22.276L27.6092 16.9427C28.1305 16.4214 28.1305 15.5773 27.6092 15.0573Z" fill="white"/>
</svg>
