<svg width="24" height="24" viewBox="0 0 24 24" fill="none" xmlns="http://www.w3.org/2000/svg">
<path d="M7.00052 7.49951C7.00052 4.74251 9.24352 2.49951 12.0005 2.49951C14.7575 2.49951 17.0005 4.74251 17.0005 7.49951C17.0005 10.2565 14.7575 12.4995 12.0005 12.4995C9.24352 12.4995 7.00052 10.2565 7.00052 7.49951ZM16.1175 13.5706C15.5585 13.4286 14.9505 13.5086 14.4475 13.7886C12.9295 14.6326 11.0715 14.6326 9.5535 13.7886C9.0515 13.5096 8.44251 13.4306 7.88351 13.5706C5.89151 14.0736 4.50052 15.8816 4.50052 17.9666V18.9775C4.50052 19.6155 4.6705 20.2394 4.9935 20.7834C5.2565 21.2254 5.74953 21.5005 6.27853 21.5005H17.7215C18.2505 21.5005 18.7435 21.2265 19.0065 20.7825C19.3295 20.2395 19.4995 19.6155 19.4995 18.9775V17.9666C19.5005 15.8816 18.1095 14.0736 16.1175 13.5706Z" fill="#71FB7E"/>
</svg>
