<svg width="20" height="26" viewBox="0 0 20 26" fill="none" xmlns="http://www.w3.org/2000/svg">
<path d="M3.33398 6.99935C3.33398 3.32335 6.32465 0.332687 10.0006 0.332687C13.6767 0.332687 16.6673 3.32335 16.6673 6.99935C16.6673 10.6754 13.6767 13.666 10.0006 13.666C6.32465 13.666 3.33398 10.6754 3.33398 6.99935ZM15.49 15.0941C14.7447 14.9047 13.934 15.0114 13.2633 15.3848C11.2393 16.5101 8.76195 16.5101 6.73795 15.3848C6.06862 15.0128 5.25664 14.9074 4.51131 15.0941C1.85531 15.7647 0.000648499 18.1754 0.000648499 20.9554V22.3034C0.000648499 23.1541 0.22729 23.9859 0.657957 24.7113C1.00862 25.3006 1.666 25.6673 2.37134 25.6673H17.6287C18.334 25.6673 18.9913 25.302 19.342 24.71C19.7726 23.986 19.9993 23.1541 19.9993 22.3034V20.9554C20.0007 18.1754 18.146 15.7647 15.49 15.0941Z" fill="#FF9B00"/>
</svg>
