<svg width="173" height="41" viewBox="0 0 173 41" fill="none" xmlns="http://www.w3.org/2000/svg">
<path fill-rule="evenodd" clip-rule="evenodd" d="M93.9735 12.0065V21.8804C93.9735 21.9073 93.9735 21.9521 93.9735 21.979C94.09 21.9521 94.2243 21.9073 94.3855 21.8177V12.9921C94.3855 12.338 94.3407 11.7556 94.2601 11.2538C94.1706 10.7162 94.0273 10.2682 93.8302 9.8919C93.7944 9.82022 93.7585 9.74854 93.7227 9.68581C93.7675 9.85606 93.8123 10.0532 93.8392 10.2503C93.9287 10.761 93.9735 11.3434 93.9735 12.0065ZM59.544 21.764C59.544 21.8356 59.544 21.8804 59.553 21.9342C59.6515 21.9073 59.7948 21.8446 59.956 21.746H59.965V12.0692C59.965 11.5047 59.9112 11.0119 59.8127 10.5908C59.7142 10.2234 59.5888 9.90982 59.4097 9.64998C59.4992 10.0532 59.553 10.537 59.553 11.0746V21.764H59.544ZM50.2291 12.0065V12.1498C50.3366 12.0154 50.4351 11.89 50.5426 11.7735L50.5784 11.7287C50.5605 11.5585 50.5426 11.3972 50.5157 11.2538C50.4172 10.7162 50.2739 10.2503 50.0858 9.8919C50.0499 9.82022 50.0141 9.74854 49.9783 9.68581C50.0231 9.85606 50.0679 10.0532 50.0947 10.2503C50.1932 10.761 50.2291 11.3434 50.2291 12.0065ZM69.5307 12.4724C69.7726 12.3022 70.0592 12.2126 70.3727 12.2126C70.6593 12.2126 70.9011 12.2573 71.1161 12.347C71.3221 12.4366 71.5012 12.553 71.6535 12.7233C71.6624 12.7412 71.6803 12.7502 71.6893 12.7681C71.6714 12.6247 71.6355 12.4903 71.5997 12.3738L71.5908 12.347C71.5101 12.0961 71.3937 11.8989 71.2325 11.7197C71.0802 11.5585 70.9011 11.433 70.6951 11.3434C70.4801 11.2538 70.2293 11.209 69.9517 11.209C69.6382 11.209 69.3516 11.3076 69.1098 11.4689C68.8411 11.6749 68.5903 11.9617 68.3753 12.3828C68.1335 12.8487 67.9633 13.3415 67.8379 13.906C67.7215 14.4705 67.6588 15.0798 67.6588 15.7518C67.6588 16.0295 67.6677 16.3073 67.6856 16.5492V16.5671C67.7036 16.8449 67.7304 17.0868 67.7752 17.3467C67.7931 17.49 67.82 17.6334 67.8558 17.7857L68.1066 17.5527C68.0887 17.3019 68.0797 17.0331 68.0797 16.7553C68.0797 16.0833 68.1424 15.474 68.2678 14.9095C68.3843 14.345 68.5724 13.8522 68.7963 13.3863C69.0112 12.9652 69.2531 12.6606 69.5307 12.4724ZM150.839 12.2394H152.514V11.2538H150.427V11.2359C150.356 11.2359 150.284 11.2359 150.221 11.209C150.078 11.4868 150.123 11.8183 150.347 12.0333C150.472 12.1677 150.66 12.2394 150.839 12.2394ZM162.206 2.92098C161.498 2.99266 160.746 3.01954 159.939 3.01954C159.25 3.01954 158.721 3.03746 158.354 3.03746C158.005 3.05538 157.763 3.06434 157.602 3.09122V7.72356C157.745 7.72356 157.888 7.72356 158.014 7.72356V4.09474C158.175 4.06786 158.426 4.04994 158.766 4.04098C159.133 4.02306 159.662 4.02306 160.343 4.02306C161.149 4.02306 161.91 3.99618 162.609 3.90658C163.307 3.85282 163.934 3.7453 164.498 3.60194C165.116 3.45858 165.681 3.18082 166.182 2.82242C166.684 2.44609 167.114 1.96225 167.499 1.38881C167.714 1.06625 167.624 0.636164 167.293 0.412162C167.239 0.367362 167.176 0.340482 167.114 0.322562C167.105 0.349442 167.096 0.367362 167.078 0.394242C166.702 0.958725 166.263 1.44257 165.761 1.81889C165.26 2.19521 164.695 2.45505 164.077 2.61633C163.531 2.75074 162.904 2.8493 162.206 2.92098ZM168.448 10.4833V21.092C168.448 21.1368 168.448 21.1816 168.448 21.2084C168.547 21.1905 168.681 21.1636 168.824 21.1188L168.869 21.1009V11.4868C168.968 11.4689 169.066 11.4599 169.165 11.442C169.469 11.3972 169.801 11.3255 170.159 11.2359C170.589 11.1194 170.965 10.9133 171.297 10.6266C171.314 10.6087 171.323 10.5997 171.341 10.5818C171.628 10.3041 171.879 9.95462 172.085 9.53349C172.255 9.18405 172.103 8.76293 171.753 8.59269C171.718 8.57477 171.691 8.56581 171.655 8.54789C171.449 8.96901 171.207 9.30053 170.92 9.57829C170.911 9.59622 170.893 9.60518 170.876 9.62309C170.553 9.92774 170.168 10.1159 169.747 10.2324C169.398 10.322 169.066 10.3937 168.753 10.4385C168.636 10.4564 168.538 10.4653 168.448 10.4833ZM168.448 21.2532C168.457 21.2712 168.457 21.2712 168.448 21.2532V21.2532ZM168.86 3.41378C168.86 3.12706 168.69 2.87618 168.448 2.77762V7.52644H168.86V3.41378ZM114.843 13.5745C114.825 13.5745 114.798 13.5924 114.771 13.5924C114.663 13.6193 114.547 13.6372 114.404 13.6372H114.099C113.92 13.6372 113.768 13.5655 113.642 13.467C113.042 13.019 112.532 12.5351 112.129 12.0154C111.923 11.7377 111.744 11.4599 111.591 11.1911L111.609 11.2359L111.618 11.2628C111.815 11.8721 112.129 12.4634 112.55 13.001C112.962 13.5386 113.463 14.0135 114.072 14.4705C114.189 14.569 114.35 14.6318 114.529 14.6318H114.834C114.977 14.6318 115.102 14.6318 115.201 14.6049C115.219 14.6049 115.246 14.587 115.264 14.587C115.38 14.5422 115.487 14.4705 115.577 14.3988V14.3809C115.729 14.2375 115.81 14.0583 115.81 13.8433C115.81 13.8164 115.801 13.7716 115.801 13.7447C115.747 12.9204 115.765 12.1319 115.855 11.3793C115.953 10.6266 116.123 9.90086 116.383 9.20197H116.374H116.383C116.67 8.38661 116.849 7.60708 116.912 6.85444C116.983 6.08387 116.938 5.33123 116.777 4.60547C116.768 4.57859 116.759 4.55171 116.759 4.53379C116.643 4.21122 116.517 3.90658 116.374 3.64674C116.526 4.35458 116.571 5.09827 116.509 5.85091C116.446 6.60356 116.267 7.39204 115.971 8.19845C115.711 8.89733 115.55 9.62309 115.452 10.3757C115.353 11.1284 115.335 11.9169 115.398 12.7412C115.407 12.786 115.407 12.8129 115.407 12.8398C115.407 13.0548 115.326 13.234 115.174 13.3774L115.165 13.3953C115.066 13.4759 114.959 13.5297 114.843 13.5745ZM124.677 12.1409L124.946 11.7914L125.035 11.6749C125.035 11.5764 125.017 11.4689 125.017 11.3703C124.964 10.7431 124.874 10.2503 124.758 9.87398C124.677 9.61413 124.57 9.38117 124.426 9.17509C124.498 9.50661 124.552 9.90086 124.596 10.3668C124.65 10.8775 124.668 11.4599 124.677 12.1409ZM106.513 23.4485L106.54 23.5381C106.674 23.8606 106.799 24.1653 106.934 24.452H106.925C106.486 23.0542 106.253 21.5758 106.208 19.9809C106.173 18.386 106.334 16.6747 106.701 14.8289C106.71 14.802 106.71 14.7841 106.71 14.7572C106.764 14.0762 106.979 13.2519 107.373 12.2932C107.767 11.3165 108.34 10.2055 109.083 8.94213C109.558 8.35077 110.033 7.86693 110.481 7.47268C110.57 7.38308 110.669 7.3114 110.767 7.23972C110.749 6.87236 110.731 6.48708 110.731 6.06595C110.731 6.03907 110.731 6.01219 110.74 5.97635C110.517 6.11075 110.302 6.281 110.069 6.46916H110.078C109.621 6.8634 109.155 7.3562 108.671 7.93861C107.937 9.20197 107.364 10.322 106.961 11.3076C106.576 12.2663 106.352 13.0817 106.298 13.7626C106.298 13.7895 106.289 13.8164 106.289 13.8522C105.922 15.6801 105.761 17.3915 105.805 18.9953C105.832 20.5723 106.074 22.0507 106.513 23.4485ZM138.067 13.8522C137.799 14.5511 137.655 15.3038 137.655 16.1012C137.655 16.6567 137.7 17.1316 137.799 17.5259C137.879 17.8753 138.005 18.1531 138.157 18.3502C138.166 18.3771 138.175 18.3771 138.193 18.395C138.112 18.0276 138.076 17.5975 138.076 17.0868C138.076 16.3073 138.22 15.5457 138.488 14.8558C138.757 14.1479 139.178 13.4759 139.733 12.8487C140.28 12.2394 140.907 11.7735 141.614 11.4868C142.017 11.3165 142.456 11.1821 142.922 11.1105V10.0621C142.295 10.1069 141.722 10.2682 141.193 10.4833C140.486 10.7879 139.859 11.2359 139.321 11.8452C138.757 12.4724 138.345 13.1534 138.067 13.8522ZM148.457 21.6654L148.502 21.6475V9.28261C148.502 8.99589 148.332 8.74501 148.09 8.62853V21.8088H148.108C148.215 21.7819 148.332 21.7371 148.457 21.6744V21.6654ZM100.843 25.4465C100.861 25.4734 100.87 25.4913 100.879 25.5182C100.852 25.4465 100.816 25.3749 100.781 25.3032C100.799 25.348 100.816 25.4107 100.843 25.4465ZM100.351 24.1294C100.351 24.1115 100.342 24.1025 100.342 24.0846L100.306 23.995C100.315 24.0398 100.324 24.0846 100.342 24.1384V24.1294H100.351ZM119.303 12.0692C119.204 12.0961 119.097 12.1409 118.972 12.2036C118.846 12.2574 118.712 12.347 118.56 12.4634C118.407 12.5799 118.237 12.7233 118.049 12.8846C117.87 13.0548 117.61 13.1354 117.359 13.0458C117.18 13.3953 117.315 13.8254 117.664 14.0046C117.933 14.139 118.255 14.0942 118.47 13.8881C118.649 13.7178 118.819 13.5834 118.981 13.467C119.124 13.3505 119.258 13.2609 119.393 13.2071C119.464 13.1802 119.527 13.1354 119.59 13.1175V12.114C119.59 12.0602 119.608 12.0423 119.599 12.0423C119.599 12.0244 119.572 12.0423 119.491 12.0423C119.428 12.0333 119.366 12.0513 119.303 12.0692ZM96.8665 21.8536C96.8217 21.8267 96.7769 21.8088 96.7322 21.7998L96.7232 21.8177C96.4276 22.3374 96.0962 22.7944 95.738 23.1976C95.3618 23.6008 94.9498 23.9502 94.493 24.2459C94.0541 24.5237 93.6152 24.7387 93.2122 24.8821C92.7733 25.0433 92.3524 25.1329 91.9583 25.1329C91.5194 25.1329 91.1253 25.0613 90.7581 24.9269C90.3819 24.7925 90.0415 24.5953 89.7549 24.3176C89.6206 24.2011 89.4952 24.0577 89.3966 23.8965C89.4235 24.0309 89.4593 24.1473 89.4952 24.2638C89.6474 24.6849 89.8624 25.0344 90.1669 25.3211C90.4535 25.5989 90.7939 25.796 91.1701 25.9304C91.5373 26.0648 91.9314 26.1185 92.3613 26.1185C92.7554 26.1185 93.1674 26.0469 93.6152 25.8856C94.0273 25.7422 94.4572 25.5182 94.896 25.2315C95.3528 24.9537 95.7648 24.6043 96.141 24.2011C96.5082 23.7979 96.8396 23.3409 97.1263 22.8213C97.3233 22.4718 97.2069 22.0417 96.8665 21.8536ZM117.762 24.9269C117.736 24.8731 117.709 24.8104 117.664 24.7387C117.619 24.6849 117.574 24.6401 117.539 24.5774C117.745 25.348 117.843 26.0558 117.816 26.701C117.789 27.588 117.547 28.3406 117.1 28.9768L117.082 29.0037C116.688 29.5413 116.294 30.0072 115.882 30.3835C115.452 30.6613 114.86 30.9749 114.269 31.1541H114.26C113.275 31.4587 112.075 31.6021 110.651 31.6021C108.77 31.629 107.068 31.1272 105.537 30.1058C104.354 29.3262 103.288 28.2152 102.33 26.8085L102.348 26.8354C102.357 26.8622 102.375 26.8891 102.384 26.907C103.486 28.7618 104.748 30.1595 106.164 31.1003C107.068 31.6917 108.036 32.1128 109.066 32.3637C110.409 32.6683 114.117 32.5967 115.693 31.6827C116.517 31.1899 117.037 30.6255 117.485 29.9803L117.512 29.9535C117.951 29.3262 118.192 28.5557 118.228 27.6866C118.255 26.8712 118.094 25.9483 117.754 24.9269H117.762ZM88.7338 12.4724C88.7249 12.4545 88.7338 12.4724 88.7159 12.4724C88.6174 12.4276 88.4651 12.4186 88.2502 12.4186C88.0621 12.4186 87.8113 12.5172 87.4889 12.7681C87.0948 13.0548 86.629 13.5118 86.1095 14.121C85.1153 15.2948 84.6227 15.9041 84.6227 15.9489V22.2657C84.6227 22.3195 84.6138 22.3822 84.5959 22.436C84.4973 22.8123 84.2913 23.1617 83.9868 23.4933C83.7181 23.78 83.3509 24.0577 82.8941 24.3355C82.4552 24.5864 82.0163 24.7835 81.5775 24.9179C81.1207 25.0523 80.6728 25.124 80.225 25.124C80.1175 25.124 80.028 25.0971 79.9384 25.0523V25.4197C79.9384 25.8139 80.2519 26.1185 80.646 26.1185C81.0848 26.1185 81.5416 26.0648 81.9984 25.9304C82.4373 25.796 82.8762 25.5989 83.324 25.339C83.7718 25.0792 84.1301 24.8014 84.4078 24.5147C84.7213 24.1832 84.9273 23.8158 85.0168 23.4574C85.0347 23.4037 85.0347 23.3409 85.0347 23.2872V16.9435C85.0347 16.8987 85.5363 16.2715 86.5305 15.1156C87.05 14.4884 87.5068 14.0583 87.9098 13.7626C88.2233 13.5118 88.4831 13.3953 88.6711 13.3953C88.7518 13.3953 88.8234 13.3953 88.8861 13.4132C88.8772 13.225 88.8682 13.0458 88.8413 12.8935C88.8145 12.7233 88.7786 12.571 88.7338 12.4724ZM34.0802 12.7054C33.901 12.8218 33.6861 12.8487 33.4801 12.795C33.3278 13.0727 33.3905 13.4311 33.6503 13.6551C33.8921 13.8612 34.2414 13.8702 34.4922 13.6999C34.9848 13.4132 35.3968 13.1892 35.7372 13.0279V11.8631C35.6386 11.89 35.5222 11.9348 35.3789 12.0065C35.0296 12.1498 34.5997 12.4007 34.0802 12.7054ZM44.9088 12.4724C44.8998 12.4545 44.8998 12.4724 44.8909 12.4724C44.8013 12.4276 44.6491 12.4186 44.4341 12.4186C44.255 12.4186 44.0042 12.5172 43.6817 12.7681C43.2787 13.0548 42.8219 13.5118 42.3114 14.121C41.765 14.7572 41.362 15.2679 41.1112 15.6263C40.9231 15.8772 40.8335 15.9131 40.8335 15.9489V22.2657C40.8335 22.3195 40.8246 22.3822 40.8156 22.436C40.7171 22.8123 40.5111 23.1617 40.2065 23.4933C39.9378 23.78 39.5706 24.0577 39.1228 24.3355C38.6839 24.5864 38.245 24.7835 37.7972 24.9179C37.3404 25.0523 36.8926 25.124 36.4447 25.124C36.3373 25.124 36.2387 25.0971 36.1581 25.0523V25.4197C36.1581 25.8139 36.4716 26.1185 36.8567 26.1185C37.3046 26.1185 37.7614 26.0648 38.2092 25.9304C38.6481 25.796 39.087 25.5989 39.5258 25.339C39.9826 25.0792 40.3409 24.8014 40.6186 24.5147C40.9231 24.1832 41.1291 23.8158 41.2276 23.4574C41.2455 23.4037 41.2455 23.3409 41.2455 23.2872V16.9435C41.2455 16.9166 41.3351 16.8718 41.5232 16.6119C41.7829 16.2625 42.177 15.7518 42.7234 15.1156C43.2429 14.5063 43.6996 14.0583 44.0937 13.7626C44.4072 13.5118 44.658 13.3953 44.8461 13.3953C44.9178 13.3953 44.9894 13.3953 45.0521 13.4132C45.0432 13.225 45.0342 13.0369 45.0163 12.8935C44.9894 12.7233 44.9536 12.571 44.9088 12.4724ZM62.1952 21.8356C62.1773 21.8356 62.1683 21.8356 62.1504 21.8177C61.9713 22.2657 61.7384 22.66 61.4518 23.0363C61.1562 23.4305 60.8069 23.7889 60.3949 24.1115C59.9739 24.443 59.5172 24.6939 59.0245 24.8552C58.5409 25.0254 58.0214 25.115 57.475 25.115C56.4898 25.115 55.7195 24.7925 55.2 24.1563C55.1284 24.0846 55.0657 23.9861 55.0119 23.8965C55.1284 24.4072 55.3344 24.8104 55.621 25.1598C56.1494 25.796 56.9108 26.1006 57.896 26.1006C58.4334 26.1006 58.9529 26.0289 59.4455 25.8497C59.9292 25.6885 60.3859 25.4465 60.8159 25.1061C61.2279 24.7835 61.5772 24.4251 61.8728 24.0309C62.1683 23.6366 62.4102 23.2155 62.5893 22.7496C62.7326 22.4001 62.5535 21.979 62.1952 21.8356ZM78.4516 20.2408C78.3978 20.196 78.3262 20.1691 78.2545 20.1512C78.2366 20.1691 78.2277 20.196 78.2097 20.2228C77.6455 21.0203 77.0633 21.7281 76.4453 22.3284C75.8183 22.9557 75.1645 23.4574 74.4748 23.8696C73.0776 24.6939 71.4922 25.115 69.7099 25.115C68.438 25.115 67.3274 24.9089 66.3959 24.5237C65.4286 24.1205 64.6583 23.5112 64.0851 22.6779C63.8074 22.2747 63.5656 21.8625 63.3596 21.4414C63.6283 22.2209 64.0134 22.9646 64.506 23.6725C65.0793 24.4878 65.8406 25.1061 66.8079 25.5182C67.7394 25.9125 68.8411 26.1006 70.1219 26.1006C71.9042 26.1006 73.4896 25.6974 74.8868 24.8552C75.5765 24.452 76.2303 23.9413 76.8573 23.332C77.4663 22.7406 78.0575 22.0238 78.6217 21.2264C78.8457 20.9038 78.7651 20.4737 78.4516 20.2408ZM77.8604 12.7054C77.6007 12.8666 77.2603 12.8666 77.0185 12.6516C76.9558 12.6068 76.9021 12.5351 76.8662 12.4814L68.8231 19.9899C68.9485 20.1332 69.0829 20.2676 69.2172 20.3662C69.3426 20.4648 69.477 20.5723 69.6203 20.644L77.2872 13.4759C77.323 13.5476 77.3768 13.6103 77.4484 13.6641C77.6903 13.8702 78.0396 13.8791 78.2904 13.7089C78.774 13.4222 79.195 13.1982 79.5353 13.0369V11.8721C79.4368 11.8989 79.3114 11.9437 79.1681 12.0154C78.8098 12.1498 78.3799 12.4007 77.8604 12.7054ZM54.2685 12.562C54.2417 12.5172 54.1969 12.4903 54.1431 12.4634C54.0625 12.4366 53.9461 12.4186 53.7938 12.4186C53.6416 12.4186 53.4177 12.5172 53.1131 12.7681C52.728 13.0458 52.2801 13.4938 51.7607 14.1031C51.7517 14.1031 51.7427 14.121 51.7338 14.13C51.1785 14.7841 50.7665 15.2948 50.5067 15.6532C50.3186 15.9041 50.2201 15.9041 50.2201 15.9399V22.2568C50.2201 22.3105 50.2112 22.3732 50.1932 22.427C50.0947 22.8033 49.8977 23.1528 49.6021 23.4843C49.3244 23.771 48.9751 24.0488 48.5452 24.3086H48.5363C48.0974 24.5685 47.6495 24.7745 47.1928 24.9C46.727 25.0344 46.2433 25.1061 45.7507 25.1061C45.6432 25.1061 45.5537 25.0792 45.4641 25.0344V25.4017C45.4641 25.796 45.7776 26.1006 46.1717 26.1006C46.6554 26.1006 47.139 26.0469 47.6048 25.9125C48.0705 25.7781 48.5183 25.5809 48.9483 25.3211H48.9572C49.3871 25.0613 49.7454 24.7835 50.0141 24.4789C50.3186 24.1563 50.5157 23.7979 50.6053 23.4305C50.6232 23.3768 50.6321 23.3141 50.6321 23.2603H50.6411V16.9435C50.6411 16.8987 50.7306 16.8987 50.9187 16.6567C51.1874 16.2894 51.5905 15.7876 52.1458 15.1335C52.1548 15.1156 52.1727 15.1066 52.1816 15.0887C52.6922 14.4974 53.14 14.0404 53.5251 13.7537C53.8297 13.5207 54.0536 13.4042 54.2148 13.4042C54.3044 13.4042 54.385 13.4222 54.4477 13.4311C54.4387 13.2161 54.4208 13.0279 54.3939 12.8756C54.3581 12.7322 54.3223 12.6337 54.2685 12.562ZM146.719 26.1006C147.185 26.1006 147.651 26.011 148.135 25.8139C148.591 25.6257 149.039 25.348 149.496 24.9896C149.935 24.6401 150.311 24.2907 150.633 23.9323C150.956 23.556 151.225 23.1797 151.431 22.7854C151.61 22.4539 151.466 22.0148 151.126 21.8446C151.09 21.8267 151.054 21.8177 151.01 21.7998C150.804 22.194 150.544 22.5704 150.213 22.9288C149.899 23.2961 149.523 23.6366 149.075 23.9861C148.618 24.3534 148.161 24.6222 147.705 24.8104C147.23 25.0165 146.755 25.115 146.298 25.115C145.985 25.115 145.627 25.0165 145.251 24.8373C144.937 24.676 144.579 24.443 144.194 24.1294C143.88 23.8785 143.629 23.6097 143.423 23.2872C143.477 23.5022 143.549 23.7262 143.647 23.9233C143.862 24.3893 144.185 24.7925 144.615 25.124C144.991 25.4286 145.349 25.6616 145.671 25.8229C146.048 26.02 146.397 26.1006 146.719 26.1006ZM161.695 10.5549C161.659 10.5549 161.623 10.537 161.596 10.537C161.31 10.4922 161.095 10.3041 161.014 10.0442C160.781 10.2503 160.54 10.4205 160.28 10.5549C159.85 10.7879 159.348 10.9761 158.766 11.0746C158.399 11.1463 158.014 11.1911 157.593 11.218V25.3749C157.593 27.2296 157.396 28.8424 157.02 30.2043C156.626 31.6111 156.025 32.7579 155.228 33.645C154.449 34.5141 153.58 35.1861 152.658 35.6162C151.717 36.0821 150.714 36.2972 149.648 36.2972H145.412C145.34 36.2972 145.268 36.2792 145.197 36.2524C145.188 36.2972 145.17 36.324 145.161 36.3509C145.036 36.7272 145.233 37.1215 145.591 37.2469C145.671 37.2738 145.752 37.2738 145.824 37.2738V37.2917H150.06C151.117 37.2917 152.12 37.0588 153.07 36.6108C154.001 36.1717 154.852 35.5087 155.64 34.6396C156.437 33.7525 157.038 32.5967 157.423 31.1989C157.808 29.837 157.996 28.2242 157.996 26.3694V12.2126C158.417 12.1857 158.811 12.1409 159.169 12.0692C159.742 11.9527 160.253 11.7825 160.692 11.5495C160.943 11.4151 161.184 11.2449 161.417 11.0388C161.498 11.2986 161.722 11.4868 161.991 11.5316C162.026 11.5316 162.062 11.5316 162.089 11.5316H163.325V10.546H161.695V10.5549ZM172.658 20.2856C172.613 20.2587 172.568 20.2408 172.515 20.2318L172.506 20.2497C172.112 20.9486 171.682 21.5668 171.216 22.1403C170.741 22.7227 170.24 23.2424 169.702 23.6904C169.138 24.1563 168.565 24.5057 167.983 24.7477C167.382 24.9985 166.773 25.124 166.164 25.124C165.663 25.124 165.233 25.0254 164.857 24.8373C164.839 24.8193 164.83 24.8193 164.812 24.8104C164.489 24.6401 164.23 24.3893 164.024 24.0846C164.095 24.3624 164.185 24.6043 164.292 24.8283C164.516 25.2673 164.821 25.5989 165.224 25.8139C165.242 25.8139 165.26 25.8318 165.278 25.8408C165.654 26.0289 166.084 26.1185 166.576 26.1185C167.185 26.1185 167.794 26.0021 168.395 25.7512C168.977 25.5003 169.541 25.1598 170.105 24.676C170.643 24.228 171.144 23.7173 171.619 23.1349C172.085 22.5704 172.515 21.9432 172.909 21.2622C172.971 21.1457 172.998 21.0292 172.998 20.8948C173.016 20.644 172.891 20.411 172.658 20.2856ZM128.609 12.8935C128.573 12.7502 128.519 12.6068 128.457 12.4993C128.43 12.4455 128.385 12.4097 128.34 12.3828C128.269 12.338 128.179 12.329 128.045 12.329C127.928 12.329 127.776 12.4007 127.588 12.5351C127.319 12.7233 127.015 13.001 126.674 13.3774C126.289 13.8254 125.922 14.2465 125.573 14.6586C125.286 14.9902 124.99 15.3575 124.677 15.7607V22.4539C124.677 22.642 124.596 22.8302 124.435 22.9736C124.193 23.1886 123.934 23.3947 123.665 23.6008C123.396 23.8069 123.101 24.0219 122.778 24.2369C122.429 24.4699 122.053 24.6581 121.65 24.8193C121.256 24.9537 120.835 25.0523 120.405 25.1061C120.369 25.124 120.333 25.124 120.288 25.124C120.19 25.124 120.091 25.0971 120.002 25.0523V25.4197C120.002 25.8139 120.315 26.1185 120.709 26.1185C120.745 26.1185 120.781 26.1185 120.826 26.1185C121.256 26.0648 121.668 25.9573 122.071 25.8139C122.474 25.6705 122.85 25.4824 123.208 25.2494C123.522 25.0344 123.817 24.8104 124.095 24.6133C124.364 24.4072 124.623 24.2101 124.865 23.9861C125.026 23.8427 125.107 23.6545 125.107 23.4485V16.7732C125.42 16.37 125.725 16.0027 126.012 15.6711C126.361 15.2679 126.728 14.8289 127.113 14.3898C127.454 14.0135 127.749 13.7178 128.027 13.5476C128.224 13.4132 128.376 13.3415 128.484 13.3415C128.564 13.3415 128.627 13.3594 128.681 13.3594C128.663 13.1713 128.636 13.0279 128.609 12.8935ZM142.922 20.9755C142.555 21.3249 142.196 21.6475 141.847 21.9521C141.157 22.5614 140.521 23.099 139.957 23.5649C139.348 24.0757 138.775 24.452 138.237 24.6939C137.655 24.9717 137.1 25.115 136.589 25.115C136.007 25.115 135.452 24.9537 134.932 24.6401C134.449 24.3355 134.001 23.8965 133.598 23.332C133.455 23.1259 133.329 22.9288 133.213 22.6958C133.41 23.3051 133.67 23.8606 134.01 24.3176C134.422 24.9 134.87 25.3301 135.344 25.6347C135.864 25.9393 136.419 26.1006 137.001 26.1006C137.521 26.1006 138.067 25.9662 138.649 25.6974C139.187 25.4465 139.76 25.0702 140.369 24.5685C140.933 24.1025 141.56 23.5649 142.259 22.9557C142.51 22.7406 142.761 22.5076 143.02 22.2747C142.958 21.9969 142.922 21.6923 142.922 21.3876V20.9755ZM134.413 11.5853C134.413 11.1463 134.341 10.761 134.216 10.3847C134.135 10.1517 134.037 9.9367 133.902 9.74854C133.965 10.0084 134.001 10.3041 134.001 10.5908C134.001 11.1284 133.84 11.6839 133.535 12.2573C133.249 12.777 132.837 13.3326 132.281 13.897C131.762 14.4167 131.26 14.9095 130.759 15.4023C130.293 15.8503 129.791 16.2983 129.281 16.7822C129.102 16.9524 128.824 17.0331 128.564 16.9524H128.555C128.376 17.3198 128.519 17.723 128.869 17.9111C129.155 18.0455 129.487 17.9828 129.702 17.7678C130.203 17.3019 130.696 16.8539 131.171 16.3879C131.672 15.9131 132.174 15.4023 132.693 14.8826C132.846 14.7393 132.98 14.5959 133.105 14.4346C133.141 14.363 133.168 14.2644 133.204 14.1838C133.508 13.3684 133.902 12.6337 134.395 11.9617C134.404 11.8362 134.413 11.7018 134.413 11.5853ZM31.214 21.0203C31.2767 21.0203 31.3484 21.0024 31.42 20.9934V9.04965C31.42 8.77189 31.2499 8.51205 30.9991 8.41349V21.0024L31.008 21.0203C31.0439 21.0113 31.1155 21.0203 31.214 21.0203ZM21.6752 10.7879C21.6752 10.8148 21.6841 10.8417 21.6841 10.8775V18.8609C21.6841 19.2104 21.702 19.515 21.7468 19.7569C21.7826 19.9899 21.8364 20.178 21.908 20.3124C21.9349 20.3662 21.9887 20.411 22.0603 20.4468C22.0872 20.4648 22.1051 20.4648 22.132 20.4737C22.114 20.2856 22.1051 20.0795 22.1051 19.8644V11.881C22.1051 11.8541 22.1051 11.8273 22.0961 11.7914C22.0693 11.4599 22.0155 11.1194 21.9439 10.7789C21.8722 10.4295 21.7827 10.0801 21.6662 9.74854C21.6573 9.72165 21.6483 9.70373 21.6393 9.67685C21.5766 9.51557 21.4871 9.35429 21.3975 9.22885C21.4513 9.41701 21.496 9.59622 21.5319 9.78438C21.5946 10.1069 21.6483 10.4564 21.6752 10.7879ZM14.68 12.3111C14.9039 12.4724 15.1995 12.4724 15.4234 12.338C15.7817 12.1319 16.0862 11.9706 16.3459 11.89C16.4355 11.8452 16.5072 11.8362 16.5878 11.8004V11.4241C16.5878 11.2359 16.5788 11.0567 16.5609 10.9313C16.5519 10.8596 16.534 10.7969 16.5251 10.77C16.5072 10.77 16.4893 10.77 16.4534 10.77C16.3191 10.77 16.1399 10.7969 15.925 10.8865C15.6652 10.985 15.3607 11.1373 15.0024 11.3345C14.8323 11.433 14.6263 11.4509 14.4382 11.4061C14.2859 11.7197 14.3844 12.114 14.68 12.3111ZM35.2625 20.3841C35.1998 20.3572 35.1371 20.3304 35.0744 20.2945C35.0564 20.3214 35.0475 20.3483 35.0296 20.3662C34.7161 20.8321 34.3399 21.307 33.8831 21.7998C33.4442 22.2926 32.9337 22.8033 32.3515 23.3499C31.7246 23.9144 31.1245 24.3534 30.5244 24.6401C29.8884 24.9448 29.2704 25.1061 28.6524 25.1061C28.1956 25.1061 27.7926 25.0344 27.4433 24.9C27.0492 24.7566 26.7357 24.5057 26.5118 24.2011C26.4849 24.1742 26.458 24.1473 26.4401 24.1115C26.4491 24.1384 26.458 24.1653 26.467 24.2011C26.5655 24.5953 26.7267 24.9269 26.9327 25.2046C27.1656 25.5093 27.4791 25.7422 27.8642 25.9035C28.2135 26.0379 28.6076 26.0917 29.0734 26.0917C29.6824 26.0917 30.3094 25.9483 30.9453 25.6257C31.5454 25.339 32.1545 24.9179 32.7725 24.3355C33.3547 23.7979 33.8742 23.2872 34.313 22.7944C34.7609 22.2836 35.146 21.8177 35.4505 21.3608C35.6655 21.0561 35.5849 20.5992 35.2625 20.3841ZM40.8246 12.1498C40.941 12.0065 41.0485 11.8631 41.1649 11.7108C41.1112 11.1194 41.0306 10.6177 40.9231 10.2324C40.8335 9.90086 40.7171 9.62309 40.5469 9.39013C40.6365 9.78438 40.7081 10.2503 40.7529 10.7969C40.7887 11.209 40.8156 11.657 40.8246 12.1498ZM14.1874 29.613H14.1605C13.6769 29.4517 13.1842 29.3531 12.7006 29.2904C12.199 29.2366 11.7064 29.2366 11.2048 29.2635C11.1959 29.2635 11.1779 29.2635 11.169 29.2635C10.3271 29.3083 9.50304 29.3979 8.68798 29.5234C7.87292 29.6578 7.05787 29.828 6.24281 30.0341L6.20698 30.052C5.32027 30.285 4.55895 30.4731 3.9499 30.6344C3.60954 30.724 3.33189 30.7957 2.84822 30.9211C2.71387 31.0197 2.5437 31.1272 2.34665 31.2079C2.10482 31.3064 1.80925 31.3781 1.44203 31.4677C1.3435 31.4856 1.25394 31.4856 1.16437 31.4677C0.859841 31.4139 0.591141 31.2975 0.376181 31.1003C0.340354 31.0735 0.304527 31.0466 0.277657 31.0107C0.259744 31.1272 0.2687 31.2437 0.304527 31.3602C0.40305 31.6648 0.564271 31.8978 0.788188 32.1039C1.00315 32.2741 1.27185 32.4085 1.58533 32.4712C1.66594 32.4891 1.76447 32.4891 1.85403 32.4712C2.22126 32.3995 2.51683 32.301 2.75866 32.1935C2.9557 32.1039 3.12588 32.0232 3.26023 31.9067C3.74389 31.7903 4.02155 31.7186 4.3619 31.629C4.97992 31.4677 5.73228 31.2795 6.62794 31.0466L6.65481 31.0287C7.46092 30.8136 8.28493 30.6523 9.09999 30.5179C9.91505 30.3835 10.748 30.3029 11.581 30.2581C11.5989 30.2581 11.6079 30.2581 11.6258 30.2581C12.1273 30.2133 12.62 30.2312 13.1215 30.285C13.6142 30.3387 14.1068 30.4463 14.5815 30.6075H14.6083C14.877 30.6971 15.0831 30.7957 15.2532 30.9301C15.2532 30.6075 15.1816 30.3477 15.0383 30.1506C14.8591 29.9176 14.5725 29.7474 14.1874 29.613ZM19.9197 27.803C19.8659 27.6866 19.8122 27.588 19.7495 27.4805C19.7764 27.579 19.8032 27.6955 19.8301 27.812C19.9286 28.1435 19.9107 28.5378 19.7943 28.941C19.6957 29.3173 19.5077 29.7205 19.23 30.1775C19.2031 30.2223 19.1673 30.2671 19.1225 30.3119C18.7016 30.7509 18.2716 31.1093 17.8328 31.3691C17.358 31.6559 16.8744 31.8351 16.3907 31.9067C16.2474 31.9247 16.1131 31.9067 15.9966 31.853L15.6921 31.7544C15.6742 31.7365 15.6563 31.7365 15.6384 31.7275C15.6473 31.8261 15.6563 31.9336 15.6473 32.0501C15.6294 32.3547 15.8085 32.6415 16.1131 32.7579L16.4086 32.8565C16.5251 32.9103 16.6684 32.9282 16.8117 32.9103C17.2954 32.8386 17.7701 32.6504 18.2448 32.3727C18.6836 32.1128 19.1136 31.7455 19.5435 31.3154C19.5883 31.2706 19.6151 31.2258 19.651 31.181C19.9197 30.733 20.1077 30.3208 20.2152 29.9445C20.3317 29.5234 20.3406 29.147 20.2421 28.8155C20.1794 28.4571 20.0719 28.1077 19.9197 27.803ZM25.9027 22.0059C25.6878 22.212 25.4818 22.4001 25.2668 22.5704C24.6846 23.0632 24.1203 23.5022 23.574 23.8875C23.0008 24.2817 22.4096 24.5864 21.7916 24.7835C21.1646 24.9985 20.5377 25.1061 19.8928 25.1061C19.2748 25.1061 18.7463 24.9627 18.2895 24.6849C17.9134 24.4341 17.5999 24.1025 17.358 23.6814C17.4387 23.9413 17.5372 24.1921 17.6447 24.4251C17.8955 24.9806 18.2537 25.4017 18.7016 25.6705C19.1583 25.9573 19.6868 26.0917 20.3048 26.0917C20.9407 26.0917 21.5766 25.9931 22.2036 25.787C22.8127 25.5809 23.4128 25.2763 23.986 24.8731C24.5324 24.4968 25.0966 24.0577 25.6788 23.5649C25.8042 23.4485 25.9206 23.3499 26.046 23.2424L26.0371 23.1976C25.9475 22.8661 25.9027 22.4628 25.9027 22.0059ZM9.10894 16.3879C8.80442 18.4667 8.46406 20.3035 8.08788 21.9163C7.75649 23.3409 7.38926 24.5864 6.98621 25.6795C7.24596 25.5809 7.53257 25.4645 7.85501 25.348C8.07893 24.6043 8.30284 23.7979 8.50885 22.9198C8.88503 21.307 9.22538 19.4612 9.52991 17.3915C9.79861 16.0564 9.96879 14.7034 10.0315 13.3684C10.1031 12.0602 10.0763 10.7521 9.95087 9.46181C9.95087 9.43493 9.95087 9.41701 9.95087 9.40805C9.86131 8.33285 9.66426 7.36516 9.3866 6.48708C9.37765 6.46916 9.37765 6.4602 9.37765 6.44228C9.2433 6.04803 9.09103 5.68963 8.92086 5.34019L8.95668 5.43875C8.96564 5.45667 8.96564 5.46563 8.96564 5.48355C9.25225 6.35268 9.44034 7.32932 9.52991 8.41349C9.53887 8.43141 9.53887 8.44037 9.53887 8.45829C9.6553 9.74854 9.69113 11.0567 9.61948 12.3649C9.53887 13.7089 9.37765 15.0529 9.10894 16.3879ZM0.832971 4.60547C0.877755 4.60547 1.00315 4.73987 1.20915 4.98179C1.45994 5.25955 1.74655 5.68067 2.06004 6.22724L2.05108 6.20931L1.93464 5.97635C1.91673 5.94947 1.90777 5.92259 1.89882 5.88675H1.90777C1.88986 5.83299 1.87195 5.72547 1.84508 5.56419C1.45098 4.83843 1.10167 4.31874 0.806101 3.9693C0.591141 3.71842 0.465747 3.59298 0.429921 3.59298C0.2687 3.59298 0.125393 3.5661 0.00895655 3.4765C-1.36802e-07 3.5213 0 3.54818 0 3.59298V3.61986C0 3.70946 0.0179134 3.7901 0.0447834 3.8797L0.0985234 4.02306C0.0985234 4.04098 0.10748 4.04994 0.10748 4.06786C0.16122 4.22914 0.268701 4.37251 0.420964 4.47107C0.537401 4.56067 0.680708 4.60547 0.832971 4.60547ZM18.809 26.3963C17.7074 25.348 16.4176 24.8283 14.9308 24.8014C13.3186 24.7297 11.581 25.0075 9.70009 25.6168C7.82814 26.2261 6.78021 26.6651 6.52942 26.8981H6.21594L6.19802 26.8443C6.17115 26.7726 6.29655 26.4501 6.56525 25.9035C7.46987 23.6277 8.22223 20.402 8.83129 16.2804C9.35078 13.6372 9.48513 11.0388 9.2433 8.50309C9.06416 6.39748 8.52676 4.77571 7.60422 3.58402C5.06948 0.313602 0.197047 1.17377 0.707578 2.69698L0.770275 2.86722C0.779231 2.8941 0.806101 2.92098 0.841928 2.92098C1.35246 2.92098 2.05108 3.73634 2.93779 5.35811C2.97362 5.54627 2.99153 5.66275 3.00049 5.68963L3.1438 5.96739C3.8245 8.44933 4.11112 11.3076 4.01259 14.5422C3.91407 17.7767 3.6185 21.1905 3.1438 24.7925C3.13484 25.9214 2.78553 27.2565 2.11378 28.7707C1.29872 29.5413 0.913581 30.0072 0.976278 30.1685C1.09272 30.5179 1.3435 30.724 1.71968 30.7957C2.35561 30.6613 2.7497 30.509 2.90196 30.3029C3.60059 30.1147 4.80078 29.8101 6.47568 29.389C8.15058 28.941 9.85235 28.6811 11.5631 28.5915C12.6558 28.5019 13.7306 28.6363 14.8144 28.9678C15.9071 29.3173 16.4176 30.0251 16.3639 31.1003L16.7132 31.2347C17.5103 31.1003 18.2895 30.6434 19.0509 29.837C19.5345 29.0574 19.7047 28.4302 19.5614 27.9912C19.445 27.3371 19.2031 26.7995 18.809 26.3963ZM31.635 21.7192C31.3394 21.7192 31.1334 21.6744 31.017 21.5758C30.9006 21.4772 30.7931 21.3697 30.7125 21.2891V8.04613C29.6735 8.04613 28.7957 8.32389 28.0971 8.88837C27.3895 9.45285 27.0402 10.1069 27.0402 10.8775V17.2929C27.0402 18.0366 26.5476 18.8788 25.5624 19.8196C24.5771 20.7784 23.7442 21.2443 23.0814 21.2443C22.3648 21.2443 21.8991 21.0382 21.702 20.635C21.505 20.2318 21.3975 19.6315 21.3975 18.8609V10.8775C21.3438 10.2234 21.2094 9.59621 21.0034 8.97797C20.7885 8.36869 20.2421 8.04613 19.3643 8.04613C18.5672 8.04613 17.8059 8.26117 17.0804 8.70021C16.3639 9.13925 15.7011 9.82022 15.0831 10.7341C15.8533 10.2861 16.4534 10.0621 16.8833 10.0621C17.2327 10.0621 17.4566 10.1786 17.5641 10.3937C17.6715 10.6087 17.7253 10.9581 17.7253 11.4241V20.0616C17.7253 21.2622 17.9134 22.2926 18.2985 23.1349C18.6926 23.9771 19.3554 24.3982 20.3227 24.3982C21.4692 24.3982 22.5619 24.0309 23.6009 23.3051C24.6398 22.5793 25.7863 21.6027 27.0402 20.3752V21.9969C27.0402 22.7764 27.1925 23.3768 27.497 23.78C27.8015 24.1832 28.33 24.3893 29.0823 24.3893C30.0944 24.3893 31.1693 23.8696 32.2978 22.8213C33.4353 21.7729 34.2951 20.8142 34.8773 19.963C34.1339 20.6171 33.498 21.0651 32.9785 21.3249C32.4501 21.5848 32.0022 21.7192 31.635 21.7192ZM59.2574 21.764V11.0657C59.2574 10.0532 59.0783 9.32741 58.72 8.90629C58.3617 8.48517 57.7527 8.27909 56.9018 8.27909C55.6747 8.27909 54.4566 8.93317 53.2475 10.2503C52.0383 11.5585 50.9367 12.8756 49.9514 14.2017V12.0065C49.9514 10.761 49.7902 9.82918 49.4678 9.20197C49.1543 8.57477 48.4915 8.27013 47.5152 8.27013C46.2344 8.27013 45.0163 8.89733 43.8519 10.1428C42.6875 11.4061 41.5948 12.786 40.5559 14.3092V12.9294C40.5559 11.3345 40.4573 10.1607 40.2603 9.39909C40.0543 8.64645 39.5885 8.27013 38.8451 8.27013C38.3615 8.27013 37.7076 8.60165 36.8747 9.28261C36.0327 9.96358 35.1191 10.9044 34.107 12.0961C35.2266 11.4241 35.9879 11.0925 36.382 11.0925C36.7045 11.0925 36.8657 11.2986 36.8657 11.6839V24.3893C37.627 24.3893 38.3973 24.1563 39.1765 23.7083C39.9558 23.2424 40.4125 22.7675 40.5379 22.2388V15.922C40.5379 15.707 41.0843 14.9454 42.186 13.6462C43.2876 12.338 44.1744 11.6839 44.8461 11.6839C45.4641 11.6839 45.8403 11.8541 45.9746 12.1767C46.109 12.5082 46.1806 12.9562 46.1806 13.5386V24.3803C47.0315 24.3803 47.8376 24.1473 48.599 23.6993C49.3603 23.2334 49.7992 22.7585 49.9335 22.2299V15.9131C49.9335 15.7249 50.4978 14.9722 51.6084 13.6462C52.728 12.329 53.5878 11.6749 54.2058 11.6749C54.6805 11.6749 55.0299 11.8183 55.2448 12.1229C55.4598 12.4097 55.5583 12.8756 55.5583 13.5297V21.5848C55.5583 23.4395 56.3375 24.3713 57.887 24.3713C58.8185 24.3713 59.6425 24.0936 60.368 23.5291C61.0846 22.9646 61.613 22.2836 61.9265 21.4683C60.995 22.2388 60.2964 22.6331 59.8485 22.6331C59.4634 22.66 59.2574 22.3553 59.2574 21.764ZM75.7198 21.1816C74.851 21.6206 73.9195 21.8356 72.9343 21.8356C71.949 21.8356 71.0623 21.7192 70.2741 21.4862C69.4859 21.2353 68.8321 20.7156 68.2947 19.9003L78.0127 10.8148C76.8394 9.7127 75.9168 8.98693 75.2361 8.65541C74.5554 8.28805 73.6956 8.11781 72.6476 8.11781C70.095 8.11781 67.9454 8.98693 66.2168 10.7341C64.4791 12.4903 63.6193 14.802 63.6193 17.6871C63.6193 19.3268 64.1119 20.868 65.1061 22.2747C66.0914 23.6993 67.7663 24.4072 70.1398 24.4072C71.7968 24.4072 73.2657 24.0309 74.5375 23.2603C75.8183 22.5076 76.9916 21.3608 78.0575 19.8376C77.3589 20.2945 76.5796 20.7604 75.7198 21.1816ZM67.4976 17.4542C67.4169 16.9166 67.3722 16.3521 67.3722 15.7428C67.3722 14.3361 67.6409 13.0996 68.1783 12.0692C68.7067 11.0209 69.4412 10.5012 70.3816 10.5012C71.125 10.5012 71.7251 10.761 72.1819 11.2449C72.6387 11.7197 72.8626 12.4097 72.8626 13.2788C72.8626 14.0046 72.155 15.0798 70.7399 16.5044C69.8084 17.3467 68.8769 18.2068 67.9364 19.058C67.7215 18.5115 67.5782 17.9918 67.4976 17.4542ZM93.6869 21.8804V12.0065C93.6869 10.761 93.5257 9.82918 93.2122 9.20197C92.8987 8.57477 92.2449 8.27013 91.2596 8.27013C89.9878 8.27013 88.7697 8.89733 87.6143 10.1428C86.4589 11.4061 85.3661 12.786 84.3272 14.3092V12.9294C84.3272 11.3345 84.2286 10.1607 84.0316 9.39909C83.8345 8.64645 83.3598 8.27013 82.6164 8.27013C82.1417 8.27013 81.4789 8.60165 80.646 9.28261C79.813 9.96358 78.8904 10.9044 77.8873 12.0961C79.0069 11.4241 79.7592 11.0925 80.1713 11.0925C80.4847 11.0925 80.646 11.2986 80.646 11.6839V24.3893C81.4073 24.3893 82.1776 24.1563 82.9657 23.7083C83.745 23.2424 84.1928 22.7675 84.3272 22.2388V15.922C84.3272 15.707 84.8825 14.9454 85.9931 13.6462C87.0948 12.338 87.9904 11.6839 88.6711 11.6839C89.2981 11.6839 89.6653 11.8541 89.8086 12.1767C89.943 12.5082 90.0146 12.9562 90.0146 13.5386V21.8984C90.0146 22.7406 90.2296 23.3678 90.6685 23.771C91.1074 24.1742 91.6806 24.3803 92.3882 24.3803C93.0241 24.3803 93.7406 24.1205 94.5378 23.6097C95.3439 23.099 96.0067 22.3732 96.5351 21.4504C95.5857 22.2657 94.8423 22.6689 94.3049 22.6689C93.8929 22.6958 93.6869 22.418 93.6869 21.8804ZM116.947 28.5736C116.607 29.0485 116.267 29.4606 115.899 29.7922C115.559 30.0251 115.058 30.3746 113.992 30.733C112.585 31.2079 112.084 31.1989 110.104 31.172C109.504 31.1183 108.922 31.0018 108.349 30.8226C107.937 30.7061 107.883 30.6613 107.444 30.5179C106.817 30.2671 106.217 29.9624 105.626 29.5861C103.736 28.251 102.438 26.5934 101.703 24.6222C101.658 24.4878 101.587 24.3176 101.479 24.1294C101.47 23.995 101.47 23.9144 101.461 23.8965L101.049 23.0005C100.512 21.1816 100.404 18.9326 100.736 16.2625L101.148 14.139C101.157 13.5028 101.739 12.0065 102.921 9.6679C104.041 7.81316 105.295 6.20036 106.692 4.82051C107.534 3.99618 108.304 3.50338 109.003 3.3421C108.985 3.28834 109.397 3.18082 110.23 2.99266C110.982 2.96578 111.609 3.09122 112.111 3.41378C112.129 3.3421 112.129 3.27938 112.111 3.24354C112.012 2.87618 111.717 2.49089 111.26 2.07873C111.394 1.49633 111.923 1.21857 112.845 1.21857C113.418 1.21857 114.019 1.38881 114.637 1.73825C115.255 2.08769 115.738 2.75074 116.088 3.7453C116.374 5.05347 116.249 6.44228 115.72 7.95652C115.174 9.43493 114.968 11.0657 115.102 12.8218C115.12 12.8756 115.031 12.9204 114.834 12.9204H114.52C113.383 12.0781 112.63 11.1194 112.29 10.0353L112.254 9.9367C112.03 9.21093 111.896 7.90277 111.869 6.04803C112.003 5.74339 112.012 5.41187 111.896 5.03555C111.824 5.00867 111.744 4.99075 111.645 4.99075H111.511C110.543 5.41187 109.549 6.25412 108.519 7.5354C106.979 10.1517 106.137 12.2125 106.029 13.7089C105.277 17.4542 105.348 20.7784 106.271 23.6814L106.298 23.78C107.695 27.3371 109.442 29.0754 111.538 29.0485C113.212 29.0664 114.341 28.5288 114.905 27.4805C115.479 26.4322 115.676 25.3569 115.496 24.2728C115.496 23.78 115.765 23.5201 116.303 23.5201C116.535 23.5381 116.804 23.771 117.109 24.1742C117.727 26.0469 117.682 27.5253 116.947 28.5736ZM133.087 8.81669C132.675 8.32389 132.111 8.09093 131.386 8.09093C130.096 8.09093 128.797 8.81669 127.489 10.2503C126.45 11.5585 125.411 12.8756 124.39 14.2017V12.5172C124.39 10.8775 124.292 9.73061 124.095 9.07653C123.898 8.42245 123.423 8.09093 122.68 8.09093C122.151 8.09093 121.345 8.60165 120.252 9.61413C119.169 10.6266 118.416 11.5585 117.986 12.3738C118.38 12.0065 118.748 11.7377 119.061 11.5764C119.384 11.4151 119.661 11.3255 119.903 11.3255C120.441 11.3255 120.7 11.5853 120.7 12.105V24.3982C121.497 24.2997 122.187 24.0488 122.796 23.6456C123.405 23.2424 123.934 22.8302 124.381 22.4449V15.5098C125.08 14.6407 125.806 13.7716 126.567 12.9114C127.328 12.0513 127.964 11.6301 128.466 11.6301C128.949 11.6301 129.29 11.8004 129.487 12.1498C129.684 12.4993 129.791 12.9294 129.791 13.4849C129.791 13.9329 129.72 14.4436 129.585 15.035C129.451 15.6174 129.317 16.0206 129.191 16.2715C130.176 15.3844 131.171 14.4257 132.192 13.3953C133.204 12.3649 133.714 11.4241 133.714 10.5818C133.705 9.8919 133.499 9.29157 133.087 8.81669ZM149.183 22.3016C148.851 22.4628 148.564 22.5525 148.323 22.5525C148 22.5525 147.83 22.3912 147.803 22.0596V8.27909H144.328C141.13 8.27909 138.524 9.21093 136.527 11.0657C134.529 12.9383 133.526 15.5546 133.526 18.9326C133.526 20.5902 133.884 21.9252 134.583 22.9288C135.291 23.9144 136.097 24.4072 137.001 24.4072C137.825 24.4072 138.802 23.9592 139.921 23.0273C141.041 22.1134 142.411 20.8948 144.032 19.3806V21.3876C144.032 22.3195 144.382 23.0453 145.062 23.5918C145.743 24.1294 146.289 24.4072 146.719 24.4072C147.472 24.4072 148.251 24.0846 149.057 23.4305C149.872 22.7944 150.445 22.1403 150.795 21.4593C150.06 21.8625 149.523 22.1403 149.183 22.3016ZM144.041 17.6244C143.298 18.2516 142.555 18.7444 141.829 19.0939C141.095 19.4612 140.414 19.6494 139.769 19.6494C139.017 19.6494 138.434 19.3627 138.014 18.7892C137.584 18.2068 137.378 17.3198 137.378 16.1012C137.378 14.3271 137.987 12.7591 139.214 11.3793C140.441 9.99942 142.053 9.31845 144.05 9.31845V17.6244H144.041ZM157.315 8.44037V3.17186C157.315 2.72386 157.494 2.46401 157.862 2.40129C158.22 2.34753 159.053 2.31169 160.36 2.31169C161.964 2.31169 163.289 2.17729 164.337 1.91745C165.385 1.65761 166.245 1.02145 166.917 0H159.232C157.557 0 156.196 0.672004 155.175 1.98913C154.145 3.30626 153.634 4.87427 153.634 6.69316V8.43141H152.953L150.831 10.537H153.634V30.6882C153.634 32.3279 152.47 33.1701 150.141 33.2149C147.803 33.2597 146.379 34.0572 145.842 35.5983H150.078C151.995 35.5983 153.688 34.8008 155.139 33.188C156.59 31.5663 157.315 28.9678 157.315 25.3749V10.546C158.623 10.546 159.644 10.3399 160.378 9.95462C161.113 9.55141 161.74 8.80773 162.277 7.73252C162.008 8.20741 160.36 8.44037 157.315 8.44037ZM170.258 21.4145C169.675 21.746 169.21 21.9073 168.833 21.9073C168.377 21.9073 168.153 21.6296 168.153 21.092V9.82918C168.744 9.8023 169.353 9.7127 169.971 9.55141C170.598 9.39013 171.091 8.96005 171.431 8.23429H168.153V2.41025C166.899 5.38499 165.6 7.23076 164.257 7.92965C162.913 8.63749 162.197 9.28261 162.116 9.8471H164.472V20.2408C164.472 21.8088 164.624 22.8929 164.928 23.4933C165.233 24.1025 165.788 24.4072 166.585 24.4072C167.624 24.4072 168.645 23.9861 169.666 23.1259C170.679 22.2836 171.556 21.2084 172.309 19.9003C171.52 20.5902 170.831 21.083 170.258 21.4145ZM44.3356 32.1755H44.3177L44.3266 32.1307L44.3356 32.1039V32.0501H44.3445H44.3714L44.3535 32.0949V32.1845H44.3356V32.1755ZM84.6048 12.1409C84.7213 11.9975 84.8287 11.8541 84.9452 11.7018C84.8914 11.1194 84.8108 10.6266 84.7033 10.2324C84.6138 9.90086 84.4973 9.62309 84.3272 9.39013C84.4167 9.78438 84.4884 10.2503 84.5332 10.7969C84.569 11.1911 84.5959 11.6481 84.6048 12.1409Z" fill="#FF4439"/>
<path fill-rule="evenodd" clip-rule="evenodd" d="M102.665 33.5846C102.323 33.5846 102.018 33.6742 101.758 33.8354C101.488 33.9966 101.291 34.1667 101.165 34.3548C100.941 34.6861 100.779 35.0354 100.689 35.4294C100.591 35.8055 100.546 36.2891 100.546 36.8354C100.546 37.1667 100.564 37.4174 100.591 37.5607C100.6 37.6055 100.609 37.6951 100.626 37.8115C100.662 38.098 100.698 38.304 100.743 38.4383C100.914 38.9309 101.03 39.2533 101.111 39.3697C101.228 39.5756 101.399 39.7637 101.632 39.9607C101.749 40.0592 101.919 40.1488 102.144 40.2383C102.368 40.3279 102.593 40.3726 102.817 40.3726C103.239 40.3726 103.634 40.2741 104.002 40.0682C104.37 39.8801 104.658 39.5488 104.873 39.0652C105.089 38.5906 105.205 37.9727 105.205 37.2115C105.205 36.8891 105.178 36.4682 105.142 35.9309L105.107 35.8145C105.098 35.7876 105.08 35.716 105.053 35.5816C104.909 34.9458 104.631 34.4533 104.218 34.113C103.805 33.7548 103.284 33.5846 102.665 33.5846ZM98.6603 36.8712C98.6603 36.3786 98.75 35.8951 98.9476 35.4025C99.0822 35.0533 99.2708 34.7309 99.5222 34.4264C99.7646 34.1399 100.079 33.8712 100.456 33.6473C100.824 33.4324 101.21 33.2533 101.596 33.1548C101.982 33.0563 102.413 33.0115 102.889 33.0115C103.706 33.0115 104.415 33.1548 105.017 33.4772C105.609 33.7637 106.094 34.1846 106.435 34.713C106.884 35.3936 107.109 36.11 107.109 36.8443C107.109 37.9637 106.732 38.904 105.977 39.6921C105.223 40.4891 104.173 40.8831 102.826 40.8831C102.494 40.8831 102.18 40.8652 101.892 40.8294C101.677 40.7846 101.479 40.7577 101.318 40.695C101.022 40.5965 100.851 40.5338 100.815 40.5249C100.393 40.2741 100.043 40.0324 99.7825 39.7816C99.5222 39.5219 99.2977 39.2443 99.1182 38.913C99.0284 38.7428 98.9117 38.4025 98.786 37.9368C98.6962 37.6324 98.6603 37.2831 98.6603 36.8712ZM93.3901 36.6115C93.5787 36.6115 93.7223 36.6294 93.8031 36.6294C94.4765 36.6294 94.9433 36.513 95.2216 36.2622C95.5 36.0115 95.6436 35.6981 95.6436 35.304C95.6436 35.0533 95.6077 34.8294 95.5359 34.6055C95.4641 34.3906 95.3833 34.2294 95.2845 34.1309C95.1409 33.9697 94.9523 33.8712 94.7189 33.7817C94.5483 33.7279 94.27 33.6921 93.8929 33.6921C93.7133 33.6921 93.5607 33.71 93.426 33.719L93.4171 33.8354L93.426 34.6145L93.4081 35.0891V35.7428C93.4081 35.913 93.3901 36.1458 93.3901 36.4234V36.6115ZM90.7416 40.3995C90.8403 40.3458 90.993 40.31 91.1995 40.2831C91.397 40.2562 91.5765 40.2115 91.7382 40.1488C91.7651 40.0771 91.7741 40.0144 91.7741 39.9786C91.783 39.9338 91.792 39.7458 91.792 39.4234L91.783 38.1159L91.801 37.4085L91.792 36.8712L91.801 36.5488C91.81 36.11 91.8189 35.7249 91.8189 35.3488C91.8189 34.5339 91.81 34.0145 91.792 33.7996L91.4419 33.7279C91.1276 33.7011 90.9122 33.6831 90.8134 33.6742L90.8044 33.3249L90.8224 33.2533C91.0199 33.2264 91.1995 33.2085 91.3611 33.2085C91.4508 33.2085 91.6304 33.2085 91.9087 33.2085C92.187 33.2264 92.3397 33.2354 92.3666 33.2354L92.6809 33.2175L93.4171 33.1727C93.8749 33.1279 94.3597 33.119 94.8715 33.119C95.6795 33.119 96.317 33.3249 96.7928 33.7279C97.2687 34.1309 97.5021 34.5966 97.5021 35.1339C97.5021 35.5279 97.3764 35.8861 97.125 36.2085C96.8647 36.5309 96.4786 36.7727 95.9489 36.9339C95.9938 37.0234 96.0566 37.104 96.1374 37.2204C96.299 37.4533 96.4337 37.6592 96.5325 37.8115L97.4662 39.3338C97.7086 39.7368 97.8612 39.9697 97.9241 40.0413C97.9959 40.095 98.1485 40.1756 98.373 40.2562C98.5525 40.3279 98.6872 40.3906 98.777 40.4622C98.8039 40.5159 98.8129 40.5786 98.8129 40.6323C98.8129 40.6592 98.8129 40.704 98.8039 40.7667H98.6423H98.5256L98.2203 40.7398H97.9779C97.8433 40.7219 97.6906 40.7219 97.5111 40.7219L96.9185 40.704C96.8736 40.704 96.739 40.7219 96.5055 40.7309C96.3978 40.7488 96.308 40.7488 96.2452 40.7577L96.0476 40.3637C95.886 40.0771 95.7603 39.8532 95.6975 39.71C95.5179 39.3339 95.2306 38.7339 94.8087 37.91C94.6111 37.516 94.4765 37.301 94.3957 37.2563C94.279 37.1667 94.0725 37.1219 93.7852 37.1219C93.7043 37.1219 93.5787 37.1219 93.3811 37.1398C93.3722 37.2563 93.3632 37.3906 93.3632 37.5428L93.3991 38.8503L93.3542 39.9518C93.4709 40.0055 93.6146 40.0682 93.7852 40.095C94.0904 40.1488 94.3598 40.2294 94.5842 40.31C94.5842 40.5159 94.5752 40.6592 94.5573 40.7488C94.4854 40.7488 94.4406 40.7488 94.4226 40.7488L94.1802 40.7667C93.3363 40.695 92.8335 40.6503 92.6719 40.6503C92.5731 40.6503 92.5013 40.6682 92.4564 40.6682L91.6394 40.7129C91.388 40.7398 91.1725 40.7577 90.966 40.7577H90.7146C90.7057 40.6592 90.7057 40.5965 90.7057 40.5697C90.7236 40.5428 90.7326 40.4712 90.7416 40.3995ZM82.8678 32.8235H83.2359C83.2628 32.8503 83.2897 32.8951 83.2987 32.913C83.4065 33.119 83.4962 33.2443 83.5501 33.307C83.604 33.307 83.8643 33.3249 84.3671 33.3249C84.6724 33.3249 84.9327 33.307 85.1662 33.307H85.2829L86.0011 33.2891L87.3299 33.307H89.1525L89.5026 33.2533C89.5565 33.2264 89.6103 33.119 89.6642 32.9667C89.6822 32.9399 89.7091 32.8772 89.736 32.8235L89.9964 32.8055C90.0323 32.8055 90.0952 32.8235 90.176 32.8235C90.1849 33.1011 90.1849 33.504 90.1849 34.0414L90.1939 34.5608L90.1849 34.8652C90.1849 34.9637 90.176 35.0533 90.158 35.1249C89.9964 35.1787 89.8527 35.2145 89.7271 35.2234C89.6283 35.0622 89.5205 34.8473 89.3949 34.5518C89.2781 34.2652 89.1973 34.104 89.1704 34.0772C89.1165 34.0324 89.0627 33.9876 89.0088 33.9876C88.91 33.9608 88.4971 33.9428 87.7519 33.9428C87.6441 33.9428 87.5095 33.9608 87.3389 33.9697C87.3209 34.1309 87.3119 34.2473 87.3119 34.3458V36.8712L87.3299 38.7249L87.3209 39.495C87.3209 39.7727 87.3479 39.9697 87.3927 40.104C87.4556 40.1309 87.5723 40.1488 87.7429 40.1756C87.7788 40.1756 87.9225 40.2204 88.1828 40.2741C88.2995 40.301 88.4073 40.3279 88.4971 40.3637C88.515 40.507 88.524 40.5965 88.524 40.6234C88.524 40.6503 88.515 40.7129 88.506 40.7667C88.4252 40.7667 88.3444 40.7667 88.2906 40.7667C87.8865 40.7667 87.5364 40.7667 87.2581 40.7398C86.9798 40.7129 86.459 40.695 85.7228 40.695C85.6061 40.695 85.256 40.7219 84.6814 40.7667C84.4569 40.7846 84.3133 40.7935 84.2414 40.7935C84.2414 40.7219 84.2325 40.6771 84.2325 40.6503L84.2235 40.5159V40.4712C84.3132 40.3547 84.4749 40.2652 84.7083 40.2115C85.1213 40.1219 85.3996 40.0234 85.5612 39.9518C85.5971 39.8801 85.6241 39.7816 85.633 39.6652C85.651 39.1906 85.6689 38.4473 85.6689 37.4174L85.651 35.1876C85.651 34.5787 85.642 34.2115 85.6061 34.0861C85.5971 34.0414 85.5881 34.0145 85.5702 33.9966C85.5522 33.9787 85.5253 33.9697 85.4894 33.9697C85.3637 33.9518 84.9687 33.9428 84.3043 33.9428C83.9362 33.9428 83.6938 33.9876 83.5591 34.0593C83.3975 34.1578 83.1371 34.4085 82.8049 34.8384C82.7062 34.9727 82.6343 35.0264 82.5805 35.0264C82.4009 34.9369 82.2842 34.8652 82.2303 34.7936C82.347 34.5428 82.5176 34.0414 82.7331 33.2712C82.796 33.0473 82.8498 32.8951 82.8678 32.8235ZM81.3774 33.3339C81.4133 33.4682 81.4492 33.6652 81.4851 33.9428C81.53 34.3458 81.557 34.6503 81.557 34.8831C81.557 34.9548 81.548 35.0264 81.539 35.0981L81.4851 35.1249L81.0632 35.0981L80.9914 35.0802C80.8208 34.5608 80.6412 34.2115 80.4706 34.0234C80.1654 33.719 79.8152 33.5578 79.4112 33.5578C79.0251 33.5578 78.7199 33.6563 78.4865 33.8622C78.262 34.0682 78.1453 34.31 78.1453 34.6055C78.1453 34.8652 78.262 35.0981 78.4865 35.3309C78.7109 35.5816 79.1778 35.7787 79.887 36.0025C80.1295 36.0563 80.4168 36.1727 80.7579 36.3339C81.0991 36.4772 81.3595 36.6563 81.539 36.8443C81.7724 37.0951 81.9341 37.3189 82.0238 37.5428C82.1046 37.7757 82.1495 38.0533 82.1495 38.4025C82.1495 38.7697 82.0867 39.1279 81.943 39.495C81.8712 39.6831 81.7455 39.8622 81.5749 40.0324C81.4582 40.1488 81.2697 40.2831 81.0273 40.4353C80.7759 40.5965 80.5245 40.7129 80.2551 40.7846C79.9858 40.8562 79.6446 40.8831 79.2316 40.8831C78.9533 40.8831 78.6211 40.8383 78.2441 40.7667L77.5348 40.5607C77.3462 40.507 77.2205 40.4622 77.1667 40.4174C77.1487 40.3995 77.1218 40.3637 77.1128 40.301V40.2473C77.1128 40.2025 77.1038 39.9428 77.0859 39.4324C77.0769 39.1816 77.0769 38.9936 77.0769 38.895V38.6712L77.6246 38.6533C77.8131 39.0921 77.9298 39.3518 77.9927 39.4324C78.1094 39.6383 78.253 39.7995 78.3967 39.9249C78.5493 40.0413 78.7199 40.1398 78.9264 40.2115C79.1329 40.2831 79.3484 40.3279 79.5908 40.3279C79.7973 40.3279 80.0397 40.2831 80.2911 40.1935C80.5514 40.095 80.7489 39.9428 80.9106 39.7458C81.0632 39.5398 81.144 39.307 81.144 39.0742C81.144 38.7876 81.0093 38.5189 80.74 38.2771C80.5784 38.1339 80.1295 37.91 79.4112 37.6503C78.684 37.3995 78.1812 37.1757 77.9029 36.9786C77.6246 36.7727 77.4001 36.504 77.2385 36.1637C77.0769 35.8324 76.9961 35.51 76.9961 35.2055C76.9961 34.5697 77.2205 34.0414 77.6695 33.6115C78.1184 33.1727 78.7738 32.9578 79.6536 32.9578C79.8422 32.9578 80.1205 32.9846 80.4886 33.0563C80.7041 33.1279 81.0093 33.2175 81.3774 33.3339ZM71.3848 37.4712C72.3095 37.4891 72.8482 37.498 73.0098 37.498L73.1624 37.4801C73.0457 37.1309 72.8931 36.7279 72.7046 36.2622C72.516 35.7966 72.3634 35.4384 72.2467 35.2055L71.3848 37.4712ZM68.6195 40.7756L68.6285 40.3726C68.7003 40.3458 68.835 40.3279 69.0235 40.2831C69.3288 40.2294 69.5084 40.1667 69.5712 40.1219C69.6341 40.0771 69.7148 39.9607 69.8136 39.7906L70.9987 36.6831L72.3903 33.0294C72.525 33.0294 72.6507 33.0294 72.7674 33.0294H73.0368L73.0906 33.1279L74.1141 35.5548C74.3386 36.0652 74.5541 36.5578 74.7336 37.0503C74.9222 37.5249 75.0748 37.9368 75.2095 38.2413C75.2813 38.4115 75.398 38.6891 75.5327 39.0652C75.5955 39.2533 75.7122 39.513 75.8469 39.8174C75.9277 39.9786 75.9905 40.0682 76.0265 40.095C76.0983 40.1488 76.215 40.1935 76.3766 40.2115C76.5382 40.2383 76.7088 40.2831 76.8973 40.3547C76.9153 40.4891 76.9243 40.5697 76.9243 40.6413C76.9243 40.6682 76.9243 40.7129 76.9243 40.7756C76.637 40.7756 76.3138 40.7577 75.9636 40.7309C75.6135 40.704 75.2992 40.6861 75.0209 40.6861C74.7067 40.6861 74.4912 40.6861 74.3476 40.704L73.342 40.7488L73.0547 40.7667C73.0547 40.6323 73.0637 40.507 73.0816 40.3726L73.737 40.2294C73.9346 40.1846 74.0423 40.1398 74.0782 40.1129C74.1141 40.0682 74.1321 40.0234 74.1321 39.9786C74.1321 39.9249 74.1231 39.8801 74.1051 39.8174L73.8717 39.2353L73.4049 38.0891H71.1513C71.0705 38.2771 70.891 38.7249 70.6306 39.4503C70.5588 39.6652 70.5139 39.8174 70.5139 39.8891C70.5139 39.9876 70.5408 40.0592 70.6037 40.104C70.6935 40.1756 70.864 40.2383 71.1244 40.2652C71.1693 40.2652 71.304 40.2921 71.5464 40.3189C71.5464 40.4622 71.5554 40.5518 71.5554 40.6055C71.5554 40.6503 71.5464 40.695 71.5464 40.7398C71.304 40.7398 70.7204 40.7129 69.8046 40.6503L69.5622 40.695C69.2659 40.7398 68.9966 40.7667 68.7362 40.7667H68.6195V40.7756ZM67.9013 33.6563C67.9282 33.7727 67.9551 33.9876 68 34.3369C68.0359 34.6682 68.0539 34.919 68.0539 35.0622C68.0539 35.1339 68.0359 35.2055 68.018 35.2951C67.8474 35.2772 67.7038 35.2682 67.587 35.2413C67.2908 34.7757 67.0843 34.4981 66.9586 34.3727C66.7341 34.1578 66.4378 33.9697 66.0877 33.8175C65.8184 33.7011 65.5221 33.6473 65.1809 33.6473C64.5165 33.6473 63.9419 33.9339 63.4481 34.5339C62.9454 35.116 62.703 36.0025 62.703 37.1488C62.703 37.704 62.8017 38.2413 62.9902 38.7428C63.1878 39.2533 63.4751 39.6562 63.8611 39.9428C64.2562 40.2294 64.7051 40.3816 65.2348 40.3816C65.4862 40.3816 65.7555 40.3547 66.0428 40.2921C66.1954 40.2473 66.3121 40.1935 66.4019 40.104C66.4648 40.0503 66.5097 39.9428 66.5186 39.8174C66.5546 39.6025 66.5725 39.2622 66.5725 38.8592C66.5725 38.4562 66.5635 38.1786 66.5456 38.0174C66.5186 37.9637 66.4917 37.9189 66.4738 37.901C66.4468 37.8831 66.366 37.8562 66.2313 37.8115L65.7016 37.6771C65.5849 37.6503 65.5221 37.6055 65.4951 37.5786C65.4862 37.5249 65.4862 37.4891 65.4862 37.4622C65.4862 37.4085 65.4951 37.3279 65.5221 37.2294C65.5939 37.2115 65.6388 37.1846 65.6657 37.1846C66.0877 37.1846 66.4648 37.2115 66.779 37.2294C66.8867 37.2473 67.0035 37.2473 67.1381 37.2473L68.0719 37.2294L68.4669 37.2115C68.5118 37.2115 68.6465 37.2294 68.8619 37.2383C68.8709 37.3369 68.8709 37.4264 68.8709 37.4891C68.8709 37.5339 68.8619 37.5876 68.826 37.6324C68.7542 37.6771 68.6465 37.7309 68.4848 37.7936C68.3232 37.8473 68.2335 37.8921 68.2155 37.91C68.1886 37.9368 68.1616 37.9995 68.1527 38.0712C68.1437 38.1249 68.1347 38.3577 68.1347 38.7697C68.1347 39.2174 68.1347 39.495 68.1257 39.5846C68.1078 39.8712 68.0988 40.0503 68.0988 40.0771C68.0988 40.2204 68.0808 40.31 68.0449 40.3547C67.9372 40.4532 67.596 40.5876 67.0214 40.7219C66.4558 40.8652 65.7914 40.9368 65.0283 40.9368C64.4986 40.9368 64.0407 40.892 63.6457 40.8025C63.2506 40.7129 62.9274 40.5965 62.6491 40.4264C62.281 40.2115 61.9667 39.9518 61.7064 39.6294C61.437 39.3249 61.2395 38.9756 61.1138 38.6174C60.9343 38.107 60.8445 37.5876 60.8445 37.0772C60.8445 36.4951 60.9792 35.913 61.2395 35.3219C61.437 34.901 61.7154 34.507 62.0745 34.1578C62.4336 33.8264 62.8735 33.5488 63.4122 33.3429C63.9419 33.1369 64.5255 33.0384 65.154 33.0384C65.2348 33.0384 65.3605 33.0563 65.5311 33.0652C66.0159 33.0652 66.4558 33.119 66.8778 33.2354C67.2818 33.3518 67.623 33.4951 67.9013 33.6563Z" fill="#FF4439"/>
<path d="M24.6742 36.7311H57.1993" stroke="#060606" stroke-width="1.1339" stroke-linecap="round" stroke-linejoin="round"/>
<path d="M109.071 36.7311H138.512" stroke="#060606" stroke-width="1.1339" stroke-linecap="round" stroke-linejoin="round"/>
</svg>
